<svg xmlns="http://www.w3.org/2000/svg" viewBox="0 0 599.95 621.5"><g id="レイヤー_2" data-name="レイヤー 2"><g id="レイヤー_1-2" data-name="レイヤー 1"><ellipse cx="405.97" cy="607.7" rx="56.72" ry="13.8" style="fill:#fff5d7"/><path d="M36.16,572.21c52-19.18,139-37.4,195-36.37,124.26,2.29,186.05,25.72,221.41,33.55,29.42,6.51,75,4.75,102.29,0,64-198.32,12.38-328.44-53.3-463.73C422.88-56.49,153.73-4.4,79.52,78.94c-90.81,102-90,276-65.25,412.94C18.22,513.74,25.51,544.83,36.16,572.21Z" style="fill:#fff5d7"/><line x1="14.27" y1="139.18" x2="14.27" y2="180.22" style="fill:none;stroke:#ffc93c;stroke-miterlimit:10;stroke-width:6px"/><line x1="474.72" y1="139.18" x2="474.72" y2="180.22" style="fill:none;stroke:#ffc93c;stroke-miterlimit:10;stroke-width:6px"/><line x1="589.84" y1="139.18" x2="589.84" y2="180.22" style="fill:none;stroke:#ffc93c;stroke-miterlimit:10;stroke-width:6px"/><line x1="359.61" y1="139.18" x2="359.61" y2="180.22" style="fill:none;stroke:#ffc93c;stroke-miterlimit:10;stroke-width:6px"/><line x1="244.5" y1="139.18" x2="244.5" y2="180.22" style="fill:none;stroke:#ffc93c;stroke-miterlimit:10;stroke-width:6px"/><line x1="129.39" y1="139.18" x2="129.39" y2="180.22" style="fill:none;stroke:#ffc93c;stroke-miterlimit:10;stroke-width:6px"/><line x1="14.27" y1="220.43" x2="14.27" y2="261.47" style="fill:none;stroke:#ffc93c;stroke-miterlimit:10;stroke-width:6px"/><line x1="474.72" y1="220.43" x2="474.72" y2="261.47" style="fill:none;stroke:#ffc93c;stroke-miterlimit:10;stroke-width:6px"/><line x1="589.84" y1="220.43" x2="589.84" y2="261.47" style="fill:none;stroke:#ffc93c;stroke-miterlimit:10;stroke-width:6px"/><line x1="359.61" y1="220.43" x2="359.61" y2="261.47" style="fill:none;stroke:#ffc93c;stroke-miterlimit:10;stroke-width:6px"/><line x1="244.5" y1="220.43" x2="244.5" y2="261.47" style="fill:none;stroke:#ffc93c;stroke-miterlimit:10;stroke-width:6px"/><line x1="129.39" y1="220.43" x2="129.39" y2="261.47" style="fill:none;stroke:#ffc93c;stroke-miterlimit:10;stroke-width:6px"/><line x1="14.27" y1="382.12" x2="14.27" y2="423.16" style="fill:none;stroke:#ffc93c;stroke-miterlimit:10;stroke-width:6px"/><line x1="474.72" y1="382.12" x2="474.72" y2="423.16" style="fill:none;stroke:#ffc93c;stroke-miterlimit:10;stroke-width:6px"/><line x1="589.84" y1="382.12" x2="589.84" y2="423.16" style="fill:none;stroke:#ffc93c;stroke-miterlimit:10;stroke-width:6px"/><line x1="359.61" y1="382.12" x2="359.61" y2="423.16" style="fill:none;stroke:#ffc93c;stroke-miterlimit:10;stroke-width:6px"/><line x1="244.5" y1="382.12" x2="244.5" y2="423.16" style="fill:none;stroke:#ffc93c;stroke-miterlimit:10;stroke-width:6px"/><line x1="129.39" y1="382.12" x2="129.39" y2="423.16" style="fill:none;stroke:#ffc93c;stroke-miterlimit:10;stroke-width:6px"/><line x1="14.27" y1="301.46" x2="14.27" y2="342.5" style="fill:none;stroke:#ffc93c;stroke-miterlimit:10;stroke-width:6px"/><line x1="474.72" y1="301.46" x2="474.72" y2="342.5" style="fill:none;stroke:#ffc93c;stroke-miterlimit:10;stroke-width:6px"/><line x1="589.84" y1="301.46" x2="589.84" y2="342.5" style="fill:none;stroke:#ffc93c;stroke-miterlimit:10;stroke-width:6px"/><line x1="359.61" y1="301.46" x2="359.61" y2="342.5" style="fill:none;stroke:#ffc93c;stroke-miterlimit:10;stroke-width:6px"/><line x1="244.5" y1="301.46" x2="244.5" y2="342.5" style="fill:none;stroke:#ffc93c;stroke-miterlimit:10;stroke-width:6px"/><line x1="129.39" y1="301.46" x2="129.39" y2="342.5" style="fill:none;stroke:#ffc93c;stroke-miterlimit:10;stroke-width:6px"/><line x1="72.52" y1="177.08" x2="72.52" y2="218.12" style="fill:none;stroke:#ffc93c;stroke-miterlimit:10;stroke-width:6px"/><line x1="532.97" y1="177.08" x2="532.97" y2="218.12" style="fill:none;stroke:#ffc93c;stroke-miterlimit:10;stroke-width:6px"/><line x1="417.86" y1="177.08" x2="417.86" y2="218.12" style="fill:none;stroke:#ffc93c;stroke-miterlimit:10;stroke-width:6px"/><line x1="302.74" y1="177.08" x2="302.74" y2="218.12" style="fill:none;stroke:#ffc93c;stroke-miterlimit:10;stroke-width:6px"/><line x1="187.63" y1="177.08" x2="187.63" y2="218.12" style="fill:none;stroke:#ffc93c;stroke-miterlimit:10;stroke-width:6px"/><line x1="72.52" y1="261.42" x2="72.52" y2="302.46" style="fill:none;stroke:#ffc93c;stroke-miterlimit:10;stroke-width:6px"/><line x1="532.97" y1="261.42" x2="532.97" y2="302.46" style="fill:none;stroke:#ffc93c;stroke-miterlimit:10;stroke-width:6px"/><line x1="417.86" y1="261.42" x2="417.86" y2="302.46" style="fill:none;stroke:#ffc93c;stroke-miterlimit:10;stroke-width:6px"/><line x1="302.74" y1="261.42" x2="302.74" y2="302.46" style="fill:none;stroke:#ffc93c;stroke-miterlimit:10;stroke-width:6px"/><line x1="187.63" y1="261.42" x2="187.63" y2="302.46" style="fill:none;stroke:#ffc93c;stroke-miterlimit:10;stroke-width:6px"/><line x1="72.52" y1="343.62" x2="72.52" y2="384.66" style="fill:none;stroke:#ffc93c;stroke-miterlimit:10;stroke-width:6px"/><line x1="532.97" y1="343.62" x2="532.97" y2="384.66" style="fill:none;stroke:#ffc93c;stroke-miterlimit:10;stroke-width:6px"/><line x1="417.86" y1="343.62" x2="417.86" y2="384.66" style="fill:none;stroke:#ffc93c;stroke-miterlimit:10;stroke-width:6px"/><line x1="302.74" y1="343.62" x2="302.74" y2="384.66" style="fill:none;stroke:#ffc93c;stroke-miterlimit:10;stroke-width:6px"/><line x1="187.63" y1="343.62" x2="187.63" y2="384.66" style="fill:none;stroke:#ffc93c;stroke-miterlimit:10;stroke-width:6px"/><line x1="72.52" y1="425.61" x2="72.52" y2="466.65" style="fill:none;stroke:#feb300;stroke-miterlimit:10;stroke-width:6px"/><line x1="532.97" y1="425.61" x2="532.97" y2="466.65" style="fill:none;stroke:#feb300;stroke-miterlimit:10;stroke-width:6px"/><line x1="417.86" y1="425.61" x2="417.86" y2="466.65" style="fill:none;stroke:#feb300;stroke-miterlimit:10;stroke-width:6px"/><line x1="302.74" y1="425.61" x2="302.74" y2="466.65" style="fill:none;stroke:#feb300;stroke-miterlimit:10;stroke-width:6px"/><line x1="187.63" y1="425.61" x2="187.63" y2="466.65" style="fill:none;stroke:#feb300;stroke-miterlimit:10;stroke-width:6px"/><line x1="4.67" y1="96.74" x2="599.95" y2="96.74" style="fill:none;stroke:#ffc93c;stroke-miterlimit:10;stroke-width:6px"/><line x1="4.67" y1="137.78" x2="599.95" y2="137.78" style="fill:none;stroke:#ffc93c;stroke-miterlimit:10;stroke-width:6px"/><line x1="4.67" y1="384.02" x2="599.95" y2="384.02" style="fill:none;stroke:#ffc93c;stroke-miterlimit:10;stroke-width:6px"/><line x1="4.67" y1="425.07" x2="599.95" y2="425.07" style="fill:none;stroke:#ffc93c;stroke-miterlimit:10;stroke-width:6px"/><line x1="4.67" y1="466.11" x2="599.95" y2="466.11" style="fill:none;stroke:#ffc93c;stroke-miterlimit:10;stroke-width:6px"/><line x1="4.67" y1="260.9" x2="599.95" y2="260.9" style="fill:none;stroke:#ffc93c;stroke-miterlimit:10;stroke-width:6px"/><line x1="4.67" y1="301.94" x2="599.95" y2="301.94" style="fill:none;stroke:#ffc93c;stroke-miterlimit:10;stroke-width:6px"/><line x1="4.67" y1="178.82" x2="599.95" y2="178.82" style="fill:none;stroke:#ffc93c;stroke-miterlimit:10;stroke-width:6px"/><line x1="4.67" y1="219.86" x2="599.95" y2="219.86" style="fill:none;stroke:#ffc93c;stroke-miterlimit:10;stroke-width:6px"/><line x1="4.67" y1="342.98" x2="599.95" y2="342.98" style="fill:none;stroke:#ffc93c;stroke-miterlimit:10;stroke-width:6px"/><path d="M193.21,469.49a20.49,20.49,0,0,0-9.65-17.39,26.4,26.4,0,0,0-40.12-34.32,15.89,15.89,0,0,0-20.06-8.08,28.53,28.53,0,1,0-56.73-4.35,29.1,29.1,0,0,0,.47,5.15A20.45,20.45,0,0,0,42.28,417a14.67,14.67,0,1,0-25.51,12.57,20.27,20.27,0,0,0-3.51-.32,20.49,20.49,0,0,0-8,1.6c2.36,20.91,5.42,41.37,9,61.07,3.95,21.86,11.24,53,21.89,80.33C78.83,556.48,145,541.4,198.37,537.05l-13.31-51.22A20.46,20.46,0,0,0,193.21,469.49Z" style="fill:#4f8a8b"/><path d="M88.9,486a14.15,14.15,0,0,1,24.18-2.8" style="fill:none;stroke:#fff5d7;stroke-linecap:round;stroke-miterlimit:10;stroke-width:4px"/><path d="M417.86,516.89H246.58a16.43,16.43,0,0,1-16.43-16.43V190.71a16.44,16.44,0,0,1,16.43-16.43H459.31a16.43,16.43,0,0,1,16.43,16.43V408.5" style="fill:none;stroke:#1b262c;stroke-miterlimit:10;stroke-width:16px"/><rect x="230.15" y="174.28" width="245.59" height="342.61" rx="16.43" style="fill:#ffc93c"/><rect x="249.1" y="208.39" width="209.2" height="250.13" rx="4.33" style="fill:#1b262c"/><circle cx="353.71" cy="488.85" r="13.64" style="fill:#fff5d7;stroke:#1b262c;stroke-miterlimit:10;stroke-width:4px"/><circle cx="352.95" cy="192.47" r="8.34" style="fill:#1b262c"/><path d="M187,520.07V273.13a9.87,9.87,0,0,1,9.87-9.87h147a9.87,9.87,0,0,1,9.88,9.87v182" style="fill:none;stroke:#1b262c;stroke-miterlimit:10;stroke-width:16px"/><rect x="186.95" y="263.26" width="166.76" height="301.09" rx="9.87" style="fill:#ffc93c"/><polygon points="309.29 275.1 304.58 287.22 235 287.22 230.28 275.1 199.08 275.1 199.08 525.23 341.58 525.23 341.58 275.1 309.29 275.1" style="fill:#1b262c;stroke:#1f2833;stroke-miterlimit:10;stroke-width:4px"/><rect x="199.83" y="477.48" width="142.5" height="47" style="fill:#ffaaab;stroke:#1f2833;stroke-miterlimit:10;stroke-width:4px"/><rect x="208.17" y="484.3" width="33.35" height="33.35" style="fill:#f0f0f0"/><path d="M241.52,500.91c-6.46,3.2-5.58,10.3-11.67,10.3-5.15,0-4.72-9.87-11.92-9.87-7.5,0-9.76,11.74-9.76,11.74v4.57h33.35Z" style="fill:#1b262c"/><line x1="253.65" y1="491.88" x2="329.45" y2="491.88" style="fill:none;stroke:#333;stroke-linecap:round;stroke-miterlimit:10;stroke-width:2px"/><line x1="253.65" y1="500.97" x2="329.45" y2="500.97" style="fill:none;stroke:#333;stroke-linecap:round;stroke-miterlimit:10;stroke-width:2px"/><line x1="253.65" y1="511.59" x2="312.77" y2="511.59" style="fill:none;stroke:#333;stroke-linecap:round;stroke-miterlimit:10;stroke-width:2px"/><rect x="199.83" y="430.48" width="142.5" height="47" style="fill:#ffaaab;stroke:#1f2833;stroke-miterlimit:10;stroke-width:4px"/><rect x="208.17" y="437.3" width="33.35" height="33.35" style="fill:#f0f0f0"/><path d="M241.52,453.92c-6.46,3.2-5.58,10.29-11.67,10.29-5.15,0-4.72-9.86-11.92-9.86-7.5,0-9.76,11.73-9.76,11.73v4.57h33.35Z" style="fill:#1b262c"/><line x1="253.65" y1="444.88" x2="329.45" y2="444.88" style="fill:none;stroke:#333;stroke-linecap:round;stroke-miterlimit:10;stroke-width:2px"/><line x1="253.65" y1="453.98" x2="329.45" y2="453.98" style="fill:none;stroke:#333;stroke-linecap:round;stroke-miterlimit:10;stroke-width:2px"/><line x1="253.65" y1="464.59" x2="312.77" y2="464.59" style="fill:none;stroke:#333;stroke-linecap:round;stroke-miterlimit:10;stroke-width:2px"/><rect x="199.83" y="385" width="142.5" height="47" style="fill:#ffaaab;stroke:#1f2833;stroke-miterlimit:10;stroke-width:4px"/><rect x="208.17" y="391.82" width="33.35" height="33.35" style="fill:#f0f0f0"/><path d="M241.52,408.5c-6.46,3.2-5.58,10.29-11.67,10.29-5.15,0-4.72-9.86-11.92-9.86-7.5,0-9.76,11.73-9.76,11.73v4.58h33.35Z" style="fill:#1b262c"/><line x1="253.65" y1="397.89" x2="327.93" y2="397.89" style="fill:none;stroke:#333;stroke-linecap:round;stroke-miterlimit:10;stroke-width:2px"/><line x1="253.65" y1="408.5" x2="326.42" y2="408.5" style="fill:none;stroke:#333;stroke-linecap:round;stroke-miterlimit:10;stroke-width:2px"/><line x1="253.65" y1="417.6" x2="312.77" y2="417.6" style="fill:none;stroke:#333;stroke-linecap:round;stroke-miterlimit:10;stroke-width:2px"/><rect x="199.83" y="338.01" width="142.5" height="47" style="fill:#ffaaab;stroke:#1f2833;stroke-miterlimit:10;stroke-width:4px"/><rect x="208.17" y="344.83" width="33.35" height="33.35" style="fill:#f0f0f0"/><path d="M241.52,361.29c-6.46,3.2-5.58,10.29-11.67,10.29-5.15,0-4.72-9.86-11.92-9.86-7.5,0-9.76,11.73-9.76,11.73V378h33.35Z" style="fill:#1b262c"/><line x1="253.65" y1="350.89" x2="329.45" y2="350.89" style="fill:none;stroke:#333;stroke-linecap:round;stroke-miterlimit:10;stroke-width:2px"/><line x1="253.65" y1="361.51" x2="329.45" y2="361.51" style="fill:none;stroke:#333;stroke-linecap:round;stroke-miterlimit:10;stroke-width:2px"/><line x1="253.65" y1="370.6" x2="312.77" y2="370.6" style="fill:none;stroke:#333;stroke-linecap:round;stroke-miterlimit:10;stroke-width:2px"/><rect x="264.26" y="275.09" width="30.32" height="7.58" rx="2.32" style="fill:#fff5d7"/><circle cx="272.6" cy="544.18" r="8.34" style="fill:#1b262c"/><rect x="247.08" y="287.98" width="142.2" height="46.72" transform="translate(82.88 -66.56) rotate(13.71)" style="fill:#ffaaab;stroke:#1f2833;stroke-miterlimit:10;stroke-width:3px"/><rect x="256.65" y="283.98" width="32.66" height="32.66" transform="translate(78.98 -56.16) rotate(13.71)" style="fill:#f0f0f0"/><path d="M289,303.79c-6.91,1.61-7.76,8.7-13.55,7.29-4.9-1.19-2.16-10.68-9-12.35-7.14-1.74-12.07,9.13-12.07,9.13l-1.08,4.45L285,320.05Z" style="fill:#1b262c"/><line x1="303.28" y1="297.79" x2="377.16" y2="315.82" style="fill:none;stroke:#333;stroke-linecap:round;stroke-miterlimit:10;stroke-width:2px"/><line x1="301" y1="307.15" x2="374.87" y2="325.18" style="fill:none;stroke:#333;stroke-linecap:round;stroke-miterlimit:10;stroke-width:2px"/><line x1="298.72" y1="316.51" x2="356.55" y2="330.62" style="fill:none;stroke:#333;stroke-linecap:round;stroke-miterlimit:10;stroke-width:2px"/><path d="M319.06,524.89c.94,10.18,6.83,36.48,15.5,53.08-9.21.51-13.16,1.76-17.37,5.57h25s-3.6-10.52-4-28.73c-.59-28,23.51-59.15,23.84-107.89.27-40.38-18.82-70.44-23.5-77.26L328,370.92c-22.43,22.57-48.75,54.25-46.4,103.76,1.26,26.85,8.15,59.88,23.35,102.78-8.37.13-14.68,1-19.47,6.08h27.19s-3.28-7.27-3.33-24.29c0-12.33,12.8-37.26,14.32-51.66" style="fill:#1b262c"/><path d="M376.58,352.21c-2,.27.57-2.72.48-5.48s-8.2,7.65-10.21,11.37a117.72,117.72,0,0,1-21,26.84c1.34,6.19,5.24,9.64,6.24,17.48,8.57-11.58,14.37-25.66,19.24-41.26,1.35-4.34,5.58-3.79,8.74-6.76C382.46,352.14,378.61,351.94,376.58,352.21Z" style="fill:#fff5d7"/><path d="M328,370.92c-22.43,22.57-48.75,54.25-46.4,103.76.08,1.89.21,3.83.35,5.79,18.83,4.8,41.55,9.27,74.59,6.34a160.84,160.84,0,0,0,5.5-39.89c.27-40.38-18.82-70.44-23.5-77.26Z" style="fill:#4f8a8b"/><path d="M304.19,407.93c-35.89-15.43-46.4-44-51.54-79-.66-4.5-4.92-4.61-7.58-8-2-2.6,1.82-2.2,3.77-1.62s-.13-2.78.38-5.48,6.92,8.83,8.32,12.82c12.74,36.32,49.87,56.24,61.83,62.86C327.29,393.87,321.09,415.19,304.19,407.93Z" style="fill:#4f8a8b;stroke:#f0f0f0;stroke-miterlimit:10;stroke-width:3px"/><path d="M283.66,395.65c4.73-7.86,10-13.87,15.92-18.21-15.26-10.61-33.78-27.26-42-50.81-1.4-4-7.81-15.53-8.32-12.82s1.58,6.06-.38,5.48-5.79-1-3.77,1.62c2.66,3.43,6.92,3.54,7.58,8C256.64,356.07,263.86,379.36,283.66,395.65Z" style="fill:#fff5d7"/><path d="M339.43,358.5l-.6,12.89s-2.69,2.11-11.21.37l7.91-14,2.72-14.6,7.5-.59.28,6.77Z" style="fill:#fff5d7"/><path d="M332.46,335.78c-2.31,4.33-6.07,11.66-6.21,17.26s7.94,2.4,7.94,2.4l5-18.22Z" style="fill:#fff5d7"/><path d="M349.64,340.36c3.05.58,5.88,3.92,1.54,8.72C347.65,353,346,353,344.3,359.3c-1.29,4.87-7.86,2.8-5.4-2.33,2.31-4.83,4.3-4.58,5.06-8.25.93-4.52-5.2-5.92-6.28-.15-.67,3.6-.26,10.32-3.68,12.31s-4.5-.23-5.72,1.73-5.74,2.42-4.31-.92.36-3.42.63-6.22,3.53-3.31,6.38-3.25,5.58-6.78,6-10.12-3.44-2.77-6-4.26c-3-1.79-2.37-8.1,4.25-6.71S342.6,339,349.64,340.36Z" style="fill:#1b262c"/><path d="M427.4,572.82c0-4.05-8.37-7.34-18.71-7.34S390,568.77,390,572.82a3,3,0,0,0,.11.78l5.19,25.62A9.83,9.83,0,0,0,405,607.7h7.36a9.82,9.82,0,0,0,9.73-8.48l5.2-25.62A3.47,3.47,0,0,0,427.4,572.82Z" style="fill:#1b262c;stroke:#1f2833;stroke-miterlimit:10;stroke-width:3px"/><ellipse cx="408.55" cy="573.34" rx="18.56" ry="7.14" style="fill:#ffaaab"/><path d="M399.66,569.14a30.45,30.45,0,0,1,8.89-1.22c.57,0,1.13,0,1.68,0" style="fill:none;stroke:#1b262c;stroke-linecap:round;stroke-miterlimit:10"/><path d="M407.63,578.74c-7.35-.18-13.16-2.53-13.16-5.4a3.31,3.31,0,0,1,1.63-2.54" style="fill:none;stroke:#1b262c;stroke-linecap:round;stroke-miterlimit:10"/><path d="M410.65,575.81q-1,.06-2.1.06c-5.29,0-9.58-1.14-9.58-2.53,0-.85,1.57-1.6,4-2.06" style="fill:none;stroke:#1b262c;stroke-linecap:round;stroke-miterlimit:10"/><rect x="410.04" y="578.97" width="2.39" height="7.62" rx="0.92" style="fill:#ffaaab"/><rect x="412.14" y="579.87" width="2.72" height="11.37" rx="1.05" style="fill:#ffaaab"/><rect x="412.14" y="594.96" width="2.72" height="6.95" rx="1.05" style="fill:#ffaaab"/><rect x="414.45" y="575.22" width="2.72" height="9.3" rx="1.05" style="fill:#ffaaab"/><rect x="416.79" y="575.22" width="2.72" height="11.37" rx="1.05" style="fill:#ffaaab"/><rect x="394.47" y="577" width="2.26" height="8.13" rx="0.87" transform="translate(-60.32 46.02) rotate(-6.19)" style="fill:#ffaaab"/><rect x="392.23" y="574.12" width="2.26" height="8.13" rx="0.87" transform="matrix(0.99, -0.11, 0.11, 0.99, -60.03, 45.76)" style="fill:#ffaaab"/><line x1="72.52" y1="94.23" x2="72.52" y2="135.27" style="fill:none;stroke:#ffc93c;stroke-miterlimit:10;stroke-width:6px"/><line x1="532.97" y1="94.23" x2="532.97" y2="135.27" style="fill:none;stroke:#ffc93c;stroke-miterlimit:10;stroke-width:6px"/><line x1="417.86" y1="94.23" x2="417.86" y2="135.27" style="fill:none;stroke:#ffc93c;stroke-miterlimit:10;stroke-width:6px"/><line x1="302.74" y1="94.23" x2="302.74" y2="135.27" style="fill:none;stroke:#ffc93c;stroke-miterlimit:10;stroke-width:6px"/><line x1="187.63" y1="94.23" x2="187.63" y2="135.27" style="fill:none;stroke:#ffc93c;stroke-miterlimit:10;stroke-width:6px"/><path d="M83.32,403.67a14.15,14.15,0,0,1,24.34-.17" style="fill:none;stroke:#fff5d7;stroke-linecap:round;stroke-miterlimit:10;stroke-width:4px"/><path d="M56.32,526.84a14.16,14.16,0,0,1,24-4.29" style="fill:none;stroke:#fff5d7;stroke-linecap:round;stroke-miterlimit:10;stroke-width:4px"/><path d="M152.19,430.36a14.15,14.15,0,0,1,21.47,11.45" style="fill:none;stroke:#fff5d7;stroke-linecap:round;stroke-miterlimit:10;stroke-width:4px"/><path d="M49.26,429.88a11.25,11.25,0,0,1,19-3.43" style="fill:none;stroke:#fff5d7;stroke-linecap:round;stroke-miterlimit:10;stroke-width:4px"/><path d="M122.4,424.5a7.47,7.47,0,0,1,12.19,4" style="fill:none;stroke:#fff5d7;stroke-linecap:round;stroke-miterlimit:10;stroke-width:4px"/><path d="M150.3,504.43a7.47,7.47,0,0,1,12.63,2.39" style="fill:none;stroke:#fff5d7;stroke-linecap:round;stroke-miterlimit:10;stroke-width:4px"/><path d="M24.22,459.24A7.47,7.47,0,0,1,36.87,457" style="fill:none;stroke:#fff5d7;stroke-linecap:round;stroke-miterlimit:10;stroke-width:4px"/><path d="M557.74,443.8A20.47,20.47,0,0,0,530,424.58a26.4,26.4,0,0,0-51.6,11.18,15.87,15.87,0,0,0-18.56,11.07,29.12,29.12,0,0,0-3.26-2.89A28.53,28.53,0,1,0,422,489.37a29.3,29.3,0,0,0,4.38,2.74,20.42,20.42,0,0,0-9.88,23.69,14.67,14.67,0,1,0-5.44,27.91,21,21,0,0,0-2.37,2.6,20.5,20.5,0,0,0-3.55,7.31q5.44,3.24,10.88,6.37c14.77,3.82,26.7,7.22,36.57,9.4,29.42,6.51,75,4.75,102.29,0,13.36-41.41,21.66-79.84,25.86-116Z" style="fill:#4f8a8b"/><path d="M494.86,434.35a14.15,14.15,0,0,1,23.73-5.4" style="fill:none;stroke:#fff5d7;stroke-linecap:round;stroke-miterlimit:10;stroke-width:4px"/><path d="M473.06,519.16a14.14,14.14,0,0,1,21.53-11.34" style="fill:none;stroke:#fff5d7;stroke-linecap:round;stroke-miterlimit:10;stroke-width:4px"/><path d="M533,542.56a14.15,14.15,0,0,1,21.53-11.35" style="fill:none;stroke:#fff5d7;stroke-linecap:round;stroke-miterlimit:10;stroke-width:4px"/><path d="M432.8,475.07a14.14,14.14,0,0,1,18.74-15.53" style="fill:none;stroke:#fff5d7;stroke-linecap:round;stroke-miterlimit:10;stroke-width:4px"/><path d="M437.69,518.48a7.47,7.47,0,0,1,4.39-12.07" style="fill:none;stroke:#fff5d7;stroke-linecap:round;stroke-miterlimit:10;stroke-width:4px"/><path d="M455.44,556.26a7.47,7.47,0,0,1,11.63-5.46" style="fill:none;stroke:#fff5d7;stroke-linecap:round;stroke-miterlimit:10;stroke-width:4px"/><path d="M529.44,444.5a7.47,7.47,0,0,1,11.27,6.17" style="fill:none;stroke:#fff5d7;stroke-linecap:round;stroke-miterlimit:10;stroke-width:4px"/><path d="M534.5,500.33a7.47,7.47,0,0,1,12.42-3.28" style="fill:none;stroke:#fff5d7;stroke-linecap:round;stroke-miterlimit:10;stroke-width:4px"/><path d="M493.76,467.3a7.47,7.47,0,0,1,12.77,1.42" style="fill:none;stroke:#fff5d7;stroke-linecap:round;stroke-miterlimit:10;stroke-width:4px"/><path d="M423,552.65a2.87,2.87,0,0,0-3.54,2l-4.69,16.65c3.6,2.3,6,0,6,0L425,556.19A2.87,2.87,0,0,0,423,552.65Z" style="fill:#1b262c"/></g></g></svg>