<svg xmlns="http://www.w3.org/2000/svg" width="790" height="693.458" viewBox="0 0 790 693.458">
  <g id="グループ_20" data-name="グループ 20" transform="translate(-979 -196)">
    <path id="パス_53" data-name="パス 53" d="M6388.125,362.895c60.832-113.98,180.871-189.5,310.4-190.492s176.41,41.468,199.133,107-44.922,150.984-46.307,220.125c-1.9,95.077,54.164,159.65,36.3,212.324-31.348,92.41-76.672,84.543-193.488,59.7s-204.777,20.91-330.891,0S6327.293,476.875,6388.125,362.895Z" transform="translate(-5255 95)" fill="#fff5d7"/>
    <circle id="楕円形_42" data-name="楕円形 42" cx="7" cy="7" r="7" transform="translate(1089 387)" fill="#fff5d7"/>
    <circle id="楕円形_98" data-name="楕円形 98" cx="7" cy="7" r="7" transform="translate(1670 674)" fill="#fff5d7"/>
    <circle id="楕円形_99" data-name="楕円形 99" cx="7" cy="7" r="7" transform="translate(1711 764)" fill="#fff5d7"/>
    <circle id="楕円形_46" data-name="楕円形 46" cx="8.5" cy="8.5" r="8.5" transform="translate(1332 244)" fill="#fff5d7"/>
    <circle id="楕円形_47" data-name="楕円形 47" cx="6.5" cy="6.5" r="6.5" transform="translate(1201 196)" fill="#fff5d7"/>
    <circle id="楕円形_48" data-name="楕円形 48" cx="6.5" cy="6.5" r="6.5" transform="translate(1756 345)" fill="#fff5d7"/>
    <circle id="楕円形_45" data-name="楕円形 45" cx="13" cy="13" r="13" transform="translate(1720 706)" fill="#fff5d7"/>
    <circle id="楕円形_49" data-name="楕円形 49" cx="16.5" cy="16.5" r="16.5" transform="translate(1644 351)" fill="#fff5d7"/>
    <circle id="楕円形_44" data-name="楕円形 44" cx="13" cy="13" r="13" transform="translate(1244 235)" fill="#fff5d7"/>
    <circle id="楕円形_50" data-name="楕円形 50" cx="9.5" cy="9.5" r="9.5" transform="translate(1114 692)" fill="#feb300"/>
    <circle id="楕円形_51" data-name="楕円形 51" cx="13" cy="13" r="13" transform="translate(1096 642)" fill="#feb300"/>
    <circle id="楕円形_52" data-name="楕円形 52" cx="13" cy="13" r="13" transform="translate(1562 387)" fill="#feb300"/>
    <circle id="楕円形_58" data-name="楕円形 58" cx="11" cy="11" r="11" transform="translate(1399 316)" fill="#feb300"/>
    <circle id="楕円形_56" data-name="楕円形 56" cx="16" cy="16" r="16" transform="translate(1421 378)" fill="#feb300"/>
    <circle id="楕円形_55" data-name="楕円形 55" cx="6.5" cy="6.5" r="6.5" transform="translate(1507 365)" fill="#feb300"/>
    <circle id="楕円形_59" data-name="楕円形 59" cx="6.5" cy="6.5" r="6.5" transform="translate(1601 325)" fill="#feb300"/>
    <circle id="楕円形_57" data-name="楕円形 57" cx="6.5" cy="6.5" r="6.5" transform="translate(1270 363)" fill="#feb300"/>
    <circle id="楕円形_54" data-name="楕円形 54" cx="13" cy="13" r="13" transform="translate(1494 264)" fill="#feb300"/>
    <circle id="楕円形_53" data-name="楕円形 53" cx="18" cy="18" r="18" transform="translate(1189 358)" fill="#feb300"/>
    <circle id="楕円形_43" data-name="楕円形 43" cx="13" cy="13" r="13" transform="translate(1065 325)" fill="#fff5d7"/>
    <circle id="楕円形_97" data-name="楕円形 97" cx="13" cy="13" r="13" transform="translate(979 702)" fill="#fff5d7"/>
    <g id="hero_no_bg" transform="translate(1010.407 423.428)">
      <path id="パス_54" data-name="パス 54" d="M533.189,393.795c5.074-2.489,7.928-5.328,7.928-8.356,0-9.736-29.937-17.648-66.883-17.648-32.633,0-59.8,6.168-65.678,14.271a302.872,302.872,0,0,0-34.583-1.9c-45.778,0-82.883,9.292-82.883,20.756s37.1,20.741,82.883,20.741c43.78,0,79.6-8.5,82.661-19.25,5.613.4,11.512.618,17.6.618,5.486,0,10.814-.174,15.857-.507a8.579,8.579,0,0,0-3.679,6.343c0,8.515,18.077,15.4,40.387,15.4s40.387-6.882,40.387-15.4C567.265,401.311,552.582,394.952,533.189,393.795Z" transform="translate(70.483 -33.989)" fill="#feb300"/>
      <path id="パス_55" data-name="パス 55" d="M423.577,338.64c-17.046,0-30.857,4.456-30.857,9.942v15.476A26.338,26.338,0,0,0,419.058,390.4h8.991a26.338,26.338,0,0,0,26.322-26.338V348.582C454.418,343.1,440.607,338.64,423.577,338.64Z" transform="translate(130.004 -51.061)" fill="none" stroke="#fff5d7" stroke-miterlimit="10" stroke-width="6"/>
      <path id="パス_56" data-name="パス 56" d="M423.577,338.64c-17.046,0-30.857,4.456-30.857,9.942v15.476A26.338,26.338,0,0,0,419.058,390.4h8.991a26.338,26.338,0,0,0,26.322-26.338V348.582C454.418,343.1,440.607,338.64,423.577,338.64Z" transform="translate(130.004 -51.061)" fill="#feb300" stroke="#333" stroke-miterlimit="10" stroke-width="2"/>
      <ellipse id="楕円形_60" data-name="楕円形 60" cx="30.857" cy="9.942" rx="30.857" ry="9.942" transform="translate(522.724 287.579)" fill="#333"/>
      <path id="パス_57" data-name="パス 57" d="M419.986,334.324c2.886-7.564-30.936-35.344-31.6-16.824C387.781,333.261,418.21,338.97,419.986,334.324Z" transform="translate(127.459 -67.105)" fill="#80ba25" stroke="#333" stroke-miterlimit="10" stroke-width="2"/>
      <line id="線_66" data-name="線 66" x2="3.821" y2="2.109" transform="translate(524.595 250.284)" fill="none" stroke="#333" stroke-linecap="round" stroke-miterlimit="10" stroke-width="0.75"/>
      <line id="線_67" data-name="線 67" x2="3.821" y2="2.125" transform="translate(531.144 254.153)" fill="none" stroke="#333" stroke-linecap="round" stroke-miterlimit="10" stroke-width="0.75"/>
      <line id="線_68" data-name="線 68" x2="3.821" y2="2.125" transform="translate(538.533 260.385)" fill="none" stroke="#333" stroke-linecap="round" stroke-miterlimit="10" stroke-width="0.75"/>
      <line id="線_69" data-name="線 69" x2="3.821" y2="2.109" transform="translate(522.644 255.39)" fill="none" stroke="#333" stroke-linecap="round" stroke-miterlimit="10" stroke-width="0.75"/>
      <line id="線_70" data-name="線 70" x2="3.806" y2="2.125" transform="translate(530.16 259.751)" fill="none" stroke="#333" stroke-linecap="round" stroke-miterlimit="10" stroke-width="0.75"/>
      <path id="パス_58" data-name="パス 58" d="M413.971,368.473c-7.405-21.327-14.477-53.04-4.075-60.62s17.014-.27,17.981,9.165c.856,8.309-1.792,26.782-5.122,47.411C420.947,375.561,413.971,368.473,413.971,368.473Z" transform="translate(136.994 -70.936)" fill="#80ba25" stroke="#333" stroke-miterlimit="10" stroke-width="2"/>
      <line id="線_71" data-name="線 71" x1="0.555" y2="3.695" transform="translate(549.299 241.563)" fill="none" stroke="#333" stroke-linecap="round" stroke-miterlimit="10" stroke-width="0.75"/>
      <line id="線_72" data-name="線 72" x1="0.27" y2="5.328" transform="translate(549.442 250.094)" fill="none" stroke="#333" stroke-linecap="round" stroke-miterlimit="10" stroke-width="0.75"/>
      <line id="線_73" data-name="線 73" x1="0.222" y2="4.979" transform="translate(556.308 264.365)" fill="none" stroke="#333" stroke-linecap="round" stroke-miterlimit="10" stroke-width="0.75"/>
      <line id="線_74" data-name="線 74" y2="4.931" transform="translate(549.442 260.195)" fill="none" stroke="#333" stroke-linecap="round" stroke-miterlimit="10" stroke-width="0.75"/>
      <path id="パス_59" data-name="パス 59" d="M415.393,337.754c-2.505-6.771,19.535-27.369,21.549-11C438.56,339.958,416.915,341.861,415.393,337.754Z" transform="translate(143.167 -61.639)" fill="#80ba25" stroke="#333" stroke-miterlimit="10" stroke-width="2"/>
      <line id="線_75" data-name="線 75" x1="3.219" y2="1.887" transform="translate(572.529 268.456)" fill="none" stroke="#333" stroke-linecap="round" stroke-miterlimit="10" stroke-width="0.75"/>
      <line id="線_76" data-name="線 76" x1="4.82" y2="2.822" transform="translate(569.374 264.175)" fill="none" stroke="#333" stroke-linecap="round" stroke-miterlimit="10" stroke-width="0.75"/>
      <line id="線_77" data-name="線 77" x1="3.536" y2="1.221" transform="translate(563.031 272.42)" fill="none" stroke="#333" stroke-linecap="round" stroke-miterlimit="10" stroke-width="0.75"/>
      <line id="線_78" data-name="線 78" x2="0.936" y2="6.121" transform="translate(550.917 277.574)" fill="none" stroke="#333" stroke-linecap="round" stroke-miterlimit="10" stroke-width="0.75"/>
      <line id="線_79" data-name="線 79" y2="3.393" transform="translate(556.53 255.454)" fill="none" stroke="#333" stroke-linecap="round" stroke-miterlimit="10" stroke-width="0.75"/>
      <line id="線_80" data-name="線 80" y2="6.184" transform="translate(556.53 241.468)" fill="none" stroke="#333" stroke-linecap="round" stroke-miterlimit="10" stroke-width="0.75"/>
      <line id="線_81" data-name="線 81" x2="0.396" y2="3.044" transform="translate(550.52 271.088)" fill="none" stroke="#333" stroke-linecap="round" stroke-miterlimit="10" stroke-width="0.75"/>
      <path id="パス_60" data-name="パス 60" d="M436.584,413.924c-17.236,0-32.807,1.586-43.955,4.345-18.679-12.13-53.77-20.312-94.03-20.312a255.941,255.941,0,0,0-57.48,6.152c-12.543-6.343-36.708-10.529-64.473-10.529-40.656,0-73.607,9.1-73.607,20.344s32.95,20.344,73.607,20.344c4.884,0,9.657-.143,14.271-.381a15.35,15.35,0,0,0-.65,4.392c0,22.2,48.49,40.308,108.317,40.308,57.544,0,104.654-16.7,108.079-37.8a233.816,233.816,0,0,0,29.906,1.824c33.886,0,61.365-6.422,61.365-14.35S470.47,413.924,436.584,413.924Z" transform="translate(-39.652 -18.884)" fill="#feb300"/>
      <rect id="長方形_70" data-name="長方形 70" width="256.608" height="358.249" rx="16.43" transform="translate(267.574 3)" fill="none" stroke="#fff5d7" stroke-miterlimit="10" stroke-width="6"/>
      <rect id="長方形_71" data-name="長方形 71" width="256.608" height="358.249" rx="16.43" transform="translate(267.574 3)" fill="#fff5d7" stroke="#333" stroke-miterlimit="10" stroke-width="2"/>
      <rect id="長方形_72" data-name="長方形 72" width="219.472" height="261.27" transform="translate(286.143 39.994)" fill="#feb300" stroke="#333" stroke-miterlimit="10" stroke-width="2"/>
      <circle id="楕円形_61" data-name="楕円形 61" cx="13.875" cy="13.875" r="13.875" transform="translate(382.012 318.436)" fill="#333"/>
      <circle id="楕円形_62" data-name="楕円形 62" cx="5.93" cy="5.93" r="5.93" transform="translate(389.956 16.209)" fill="#333"/>
      <path id="パス_61" data-name="パス 61" d="M1.5,113.95l30.4-11.306,74.7,26.893,30.4-28.7,60.81,28.7L318.6,86.074l49.584,26.259L435.8,56.39l41.7,40.736,96.789,21.628,55.895-15.048,109.633,15.761" transform="translate(0 31.269)" fill="none" stroke="#333" stroke-linecap="round" stroke-miterlimit="10" stroke-width="3"/>
      <path id="パス_62" data-name="パス 62" d="M26.15,90.212,116.485,78.4,155.572,18.81l40.831,35.5,98.771,19.964L350.466,18.81l87.4,40.7L552.527,34.968l27.242,31.047L627.228,78.4l46.9-18.013" transform="translate(14.437 9.259)" fill="none" stroke="#333" stroke-linecap="round" stroke-miterlimit="10" stroke-width="3"/>
      <rect id="長方形_73" data-name="長方形 73" width="171.632" height="309.918" rx="9.87" transform="translate(223.81 99.472)" fill="none" stroke="#fff5d7" stroke-miterlimit="10" stroke-width="6"/>
      <rect id="長方形_74" data-name="長方形 74" width="171.632" height="309.918" rx="9.87" transform="translate(223.81 99.472)" fill="#333" stroke="#333" stroke-miterlimit="10" stroke-width="2"/>
      <path id="パス_63" data-name="パス 63" d="M263.887,70.05l-4.931,13.3H186.173l-4.931-13.3H148.91V331.114H297.661V70.05Z" transform="translate(86.333 39.269)" fill="#fff5d7" stroke="#333" stroke-miterlimit="10" stroke-width="2"/>
      <rect id="長方形_75" data-name="長方形 75" width="148.735" height="48.87" transform="translate(235.243 321.512)" fill="#feb300" stroke="#333" stroke-miterlimit="10" stroke-width="2"/>
      <rect id="長方形_76" data-name="長方形 76" width="34.171" height="34.171" transform="translate(243.869 328.87)" fill="#f1f1f1"/>
      <path id="パス_64" data-name="パス 64" d="M251.031,375.18c-6.628,3.346-5.724,10.767-11.956,10.767-5.28,0-4.852-10.307-12.225-10.307-7.675,0-9.99,12.273-9.99,12.273v4.757h34.171Z" transform="translate(27.009 -29.661)" fill="#333"/>
      <line id="線_82" data-name="線 82" x2="79.537" transform="translate(291.122 335.878)" fill="none" stroke="#333" stroke-linecap="round" stroke-miterlimit="10" stroke-width="2"/>
      <line id="線_83" data-name="線 83" x2="79.537" transform="translate(291.122 345.947)" fill="none" stroke="#333" stroke-linecap="round" stroke-miterlimit="10" stroke-width="2"/>
      <line id="線_84" data-name="線 84" x2="62.269" transform="translate(291.122 356.032)" fill="none" stroke="#333" stroke-linecap="round" stroke-miterlimit="10" stroke-width="2"/>
      <rect id="長方形_77" data-name="長方形 77" width="148.735" height="48.87" transform="translate(235.243 272.198)" fill="#feb300" stroke="#333" stroke-miterlimit="10" stroke-width="2"/>
      <rect id="長方形_78" data-name="長方形 78" width="34.171" height="34.171" transform="translate(243.869 279.556)" fill="#f1f1f1"/>
      <path id="パス_65" data-name="パス 65" d="M251.031,344.08c-6.628,3.346-5.724,10.767-11.956,10.767-5.28,0-4.852-10.323-12.225-10.323-7.675,0-9.99,12.273-9.99,12.273v4.757h34.171Z" transform="translate(27.009 -47.875)" fill="#333"/>
      <line id="線_85" data-name="線 85" x2="79.537" transform="translate(291.122 286.548)" fill="none" stroke="#333" stroke-linecap="round" stroke-miterlimit="10" stroke-width="2"/>
      <line id="線_86" data-name="線 86" x2="79.537" transform="translate(291.122 296.633)" fill="none" stroke="#333" stroke-linecap="round" stroke-miterlimit="10" stroke-width="2"/>
      <line id="線_87" data-name="線 87" x2="62.269" transform="translate(291.122 306.702)" fill="none" stroke="#333" stroke-linecap="round" stroke-miterlimit="10" stroke-width="2"/>
      <rect id="長方形_79" data-name="長方形 79" width="148.735" height="48.87" transform="translate(235.465 223.328)" fill="#feb300" stroke="#333" stroke-miterlimit="10" stroke-width="2"/>
      <rect id="長方形_80" data-name="長方形 80" width="34.171" height="34.171" transform="translate(244.091 230.67)" fill="#f1f1f1"/>
      <path id="パス_66" data-name="パス 66" d="M251.155,313.26c-6.628,3.346-5.724,10.767-11.956,10.767-5.28,0-4.836-10.323-12.21-10.323-7.675,0-9.99,12.273-9.99,12.273v4.757h34.155Z" transform="translate(27.091 -65.925)" fill="#333"/>
      <line id="線_88" data-name="線 88" x2="77.476" transform="translate(291.344 237.678)" fill="none" stroke="#333" stroke-linecap="round" stroke-miterlimit="10" stroke-width="2"/>
      <line id="線_89" data-name="線 89" x2="76.048" transform="translate(291.344 247.763)" fill="none" stroke="#333" stroke-linecap="round" stroke-miterlimit="10" stroke-width="2"/>
      <line id="線_90" data-name="線 90" x2="62.269" transform="translate(291.344 257.832)" fill="none" stroke="#333" stroke-linecap="round" stroke-miterlimit="10" stroke-width="2"/>
      <rect id="長方形_81" data-name="長方形 81" width="148.735" height="48.87" transform="translate(235.243 174.458)" fill="#feb300" stroke="#333" stroke-miterlimit="10" stroke-width="2"/>
      <rect id="長方形_82" data-name="長方形 82" width="34.171" height="34.171" transform="translate(243.869 181.799)" fill="#f1f1f1"/>
      <path id="パス_67" data-name="パス 67" d="M251.031,282.44c-6.628,3.346-5.724,10.767-11.956,10.767-5.28,0-4.852-10.323-12.225-10.323-7.675,0-9.99,12.273-9.99,12.273v4.757h34.171Z" transform="translate(27.009 -83.975)" fill="#333"/>
      <line id="線_91" data-name="線 91" x2="79.537" transform="translate(291.122 188.808)" fill="none" stroke="#333" stroke-linecap="round" stroke-miterlimit="10" stroke-width="2"/>
      <line id="線_92" data-name="線 92" x2="79.537" transform="translate(291.122 198.893)" fill="none" stroke="#333" stroke-linecap="round" stroke-miterlimit="10" stroke-width="2"/>
      <line id="線_93" data-name="線 93" x2="62.269" transform="translate(291.122 208.962)" fill="none" stroke="#333" stroke-linecap="round" stroke-miterlimit="10" stroke-width="2"/>
      <path id="パス_68" data-name="パス 68" d="M206.13,244.415h54.832l-.476-5.645H206.606Z" transform="translate(119.844 138.082)" fill="#fff5d7" stroke="#333" stroke-miterlimit="10" stroke-width="1"/>
      <path id="パス_69" data-name="パス 69" d="M211.61,182.075h37.453l-.333-5.645H211.943Z" transform="translate(123.054 101.572)" fill="#80ba25" stroke="#333" stroke-miterlimit="10" stroke-width="1"/>
      <path id="パス_70" data-name="パス 70" d="M210.81,193.975H250.8l-.349-5.645H211.159Z" transform="translate(122.585 108.541)" fill="#fff5d7" stroke="#333" stroke-miterlimit="10" stroke-width="1"/>
      <path id="パス_71" data-name="パス 71" d="M209.51,206.585h44.113l-.381-5.645H209.891Z" transform="translate(121.824 115.926)" fill="#fff5d7" stroke="#333" stroke-miterlimit="10" stroke-width="1"/>
      <path id="パス_72" data-name="パス 72" d="M208.29,219.195h47.982l-.412-5.645H208.7Z" transform="translate(121.11 123.312)" fill="#fff5d7" stroke="#333" stroke-miterlimit="10" stroke-width="1"/>
      <path id="パス_73" data-name="パス 73" d="M207.45,231.8H258.1l-.444-5.645H207.894Z" transform="translate(120.618 130.697)" fill="#fff5d7" stroke="#333" stroke-miterlimit="10" stroke-width="1"/>
      <rect id="長方形_83" data-name="長方形 83" width="32.268" height="7.357" rx="2.32" transform="translate(303.22 109.319)" fill="#fff5d7"/>
      <circle id="楕円形_63" data-name="楕円形 63" cx="11.068" cy="11.068" r="11.068" transform="translate(299.874 379.056)" fill="#fff5d7"/>
      <circle id="楕円形_64" data-name="楕円形 64" cx="8.452" cy="8.452" r="8.452" transform="translate(302.491 381.672)" fill="#333"/>
      <rect id="長方形_84" data-name="長方形 84" width="6.66" height="183.969" transform="matrix(-0.996, 0.085, -0.085, -0.996, 392.537, 441.406)" fill="#fff5d7" stroke="#333" stroke-linejoin="round" stroke-width="2"/>
      <rect id="長方形_85" data-name="長方形 85" width="148.735" height="48.87" transform="translate(289.461 106.65) rotate(17.09)" fill="none" stroke="#fff5d7" stroke-miterlimit="10" stroke-width="6"/>
      <rect id="長方形_86" data-name="長方形 86" width="148.735" height="48.87" transform="translate(289.461 106.65) rotate(17.09)" fill="#feb300" stroke="#333" stroke-miterlimit="10" stroke-width="2"/>
      <rect id="長方形_87" data-name="長方形 87" width="34.171" height="34.171" transform="translate(295.56 116.215) rotate(17.09)" fill="#f1f1f1"/>
      <path id="パス_74" data-name="パス 74" d="M280.962,249.507c-7.326,1.253-8.642,8.61-14.588,6.787-5.058-1.586-1.586-11.29-8.642-13.462-7.342-2.252-13.161,8.8-13.161,8.8L243.16,256.2l32.649,10.053Z" transform="translate(42.412 -107.35)" fill="#333"/>
      <line id="線_94" data-name="線 94" x2="76.017" y2="23.373" transform="translate(338.676 136.783)" fill="none" stroke="#333" stroke-linecap="round" stroke-miterlimit="10" stroke-width="2"/>
      <line id="線_95" data-name="線 95" x2="76.017" y2="23.373" transform="translate(335.71 146.423)" fill="none" stroke="#333" stroke-linecap="round" stroke-miterlimit="10" stroke-width="2"/>
      <line id="線_96" data-name="線 96" x2="59.526" y2="18.299" transform="translate(332.745 156.048)" fill="none" stroke="#333" stroke-linecap="round" stroke-miterlimit="10" stroke-width="2"/>
      <path id="パス_75" data-name="パス 75" d="M307,273.893s-35.995,38.658-30.667,98.644c0,0-6.66-2.664-9.324,5.328h22.659s-2.664-23.991,9.34-38.658c0,0-1.332,21.327,6.66,33.3,0,0-6.66-2.664-9.34,5.328H319c-6.676-25.371-8.008-58.67,1.332-107.984,2.965-15.714-16-22.659-21.327,1.348Z" transform="translate(56.38 -99.721)" fill="none" stroke="#fff5d7" stroke-linejoin="round" stroke-width="6"/>
      <path id="パス_76" data-name="パス 76" d="M319.235,278.177l2.046-4.757c5.217,4.678-3.917,17.981-23.151,21.644l1.126-10.814Z" transform="translate(74.606 -89.258)" fill="none" stroke="#fff5d7" stroke-linejoin="round" stroke-width="2"/>
      <circle id="楕円形_65" data-name="楕円形 65" cx="5.375" cy="5.375" r="5.375" transform="translate(355.309 148.723)" fill="#f1f1f1"/>
      <path id="パス_77" data-name="パス 77" d="M307,273.893s-35.995,38.658-30.667,98.644c0,0-6.66-2.664-9.324,5.328h22.659s-2.664-23.991,9.34-38.658c0,0-1.332,21.327,6.66,33.3,0,0-6.66-2.664-9.34,5.328H319c-6.676-25.371-8.008-58.67,1.332-107.984,2.965-15.714-16-22.659-21.327,1.348Z" transform="translate(56.38 -99.721)" fill="#fff5d7" stroke="#333" stroke-linejoin="round" stroke-width="2"/>
      <path id="パス_78" data-name="パス 78" d="M301.44,298.509c-40.878-19.979-41.021-34.187-35.693-38.2l1.332,6.676,38.627,21.961" transform="translate(54.218 -96.936)" fill="none" stroke="#fff5d7" stroke-linecap="round" stroke-linejoin="round" stroke-width="2"/>
      <path id="パス_79" data-name="パス 79" d="M301.912,297.749c-40.878-20.043-40.974-34.2-35.693-38.2l1.332,6.66,38.611,21.977" transform="translate(54.507 -97.381)" fill="#fff5d7" stroke="#333" stroke-linecap="round" stroke-linejoin="round" stroke-width="2"/>
      <path id="パス_80" data-name="パス 80" d="M318.8,277.457l2.046-4.757c5.217,4.757-3.9,17.981-23.151,21.66l1.126-10.83Z" transform="translate(74.348 -89.679)" fill="#fff5d7" stroke="#333" stroke-linejoin="round" stroke-width="2"/>
      <path id="パス_81" data-name="パス 81" d="M290.52,259.417l16.285,5.867C306.028,256.15,297.021,251.964,290.52,259.417Z" transform="translate(70.149 -99.706)" fill="#333"/>
      <path id="パス_82" data-name="パス 82" d="M313.692,303.111,280.3,299.94a134.575,134.575,0,0,0-3.964,46.555s-6.66-2.664-9.324,5.328h22.659s-2.664-23.991,9.34-38.658c0,0-1.332,21.327,6.66,33.3,0,0-6.66-2.664-9.34,5.328H319A178.848,178.848,0,0,1,313.692,303.111Z" transform="translate(56.38 -73.726)" fill="#333" stroke="#333" stroke-linejoin="round" stroke-width="2"/>
      <circle id="楕円形_66" data-name="楕円形 66" cx="4.265" cy="4.265" r="4.265" transform="translate(356.419 149.833)" fill="#333"/>
      <path id="パス_83" data-name="パス 83" d="M146.114,376.1c2.125-3.631-8.42-17.728-11.258-8.531C132.557,374.992,144.767,378.338,146.114,376.1Z" transform="translate(-21.186 -35.911)" fill="#80ba25" stroke="#333" stroke-miterlimit="10" stroke-width="2"/>
      <path id="パス_84" data-name="パス 84" d="M151.353,379.92c-9.958,0-18.013,2.6-18.013,5.819v9.022a15.365,15.365,0,0,0,15.318,15.413h5.28a15.381,15.381,0,0,0,15.381-15.381v-9.022C169.366,382.52,161.343,379.92,151.353,379.92Z" transform="translate(-21.906 -26.885)" fill="none" stroke="#fff5d7" stroke-miterlimit="10" stroke-width="6"/>
      <path id="パス_85" data-name="パス 85" d="M151.353,379.92c-9.958,0-18.013,2.6-18.013,5.819v9.022a15.365,15.365,0,0,0,15.318,15.413h5.28a15.381,15.381,0,0,0,15.381-15.381v-9.022C169.366,382.52,161.343,379.92,151.353,379.92Z" transform="translate(-21.906 -26.885)" fill="#feb300" stroke="#333" stroke-miterlimit="10" stroke-width="2"/>
      <ellipse id="楕円形_67" data-name="楕円形 67" cx="18.013" cy="5.804" rx="18.013" ry="5.804" transform="translate(111.434 353.051)" fill="#333"/>
      <path id="パス_86" data-name="パス 86" d="M145.735,397.341c-4.313-12.447-8.436-30.968-2.379-35.392s9.942-.159,10.513,5.36c.492,4.852-1.047,15.635-3,27.67C149.81,401.479,145.735,397.341,145.735,397.341Z" transform="translate(-17.826 -38.486)" fill="#80ba25" stroke="#333" stroke-miterlimit="10" stroke-width="2"/>
      <path id="パス_87" data-name="パス 87" d="M145.966,383.358c-2.394-4.091,14.4-23.341,16.57-12.685C164.376,379.631,147.441,385.863,145.966,383.358Z" transform="translate(-14.648 -34.16)" fill="#80ba25" stroke="#333" stroke-miterlimit="10" stroke-width="2"/>
      <line id="線_97" data-name="線 97" x1="0.333" y2="2.157" transform="translate(126.704 326.444)" fill="none" stroke="#333" stroke-linecap="round" stroke-miterlimit="10" stroke-width="0.75"/>
      <line id="線_98" data-name="線 98" x1="0.159" y2="3.108" transform="translate(127.037 331.169)" fill="none" stroke="#333" stroke-linecap="round" stroke-miterlimit="10" stroke-width="0.75"/>
      <line id="線_99" data-name="線 99" x1="0.127" y2="2.902" transform="translate(131.049 339.494)" fill="none" stroke="#333" stroke-linecap="round" stroke-miterlimit="10" stroke-width="0.75"/>
      <line id="線_100" data-name="線 100" y2="2.886" transform="translate(127.037 337.052)" fill="none" stroke="#333" stroke-linecap="round" stroke-miterlimit="10" stroke-width="0.75"/>
      <line id="線_101" data-name="線 101" x2="1.649" y2="1.411" transform="translate(115.842 334.039)" fill="none" stroke="#333" stroke-linecap="round" stroke-miterlimit="10" stroke-width="0.75"/>
      <line id="線_102" data-name="線 102" x2="2.474" y2="2.125" transform="translate(117.174 331.724)" fill="none" stroke="#333" stroke-linecap="round" stroke-miterlimit="10" stroke-width="0.75"/>
      <line id="線_103" data-name="線 103" x2="1.903" y2="1.062" transform="translate(120.71 337.258)" fill="none" stroke="#333" stroke-linecap="round" stroke-miterlimit="10" stroke-width="0.75"/>
      <line id="線_104" data-name="線 104" x2="0.539" y2="3.568" transform="translate(127.893 347.2)" fill="none" stroke="#333" stroke-linecap="round" stroke-miterlimit="10" stroke-width="0.75"/>
      <line id="線_105" data-name="線 105" y2="1.982" transform="translate(131.176 334.293)" fill="none" stroke="#333" stroke-linecap="round" stroke-miterlimit="10" stroke-width="0.75"/>
      <line id="線_106" data-name="線 106" y2="3.615" transform="translate(131.255 325.366)" fill="none" stroke="#333" stroke-linecap="round" stroke-miterlimit="10" stroke-width="0.75"/>
      <line id="線_107" data-name="線 107" x1="1.998" y2="1.586" transform="translate(140.848 337.242)" fill="none" stroke="#333" stroke-linecap="round" stroke-miterlimit="10" stroke-width="0.75"/>
      <line id="線_108" data-name="線 108" x2="0.222" y2="1.76" transform="translate(127.671 343.426)" fill="none" stroke="#333" stroke-linecap="round" stroke-miterlimit="10" stroke-width="0.75"/>
      <line id="線_109" data-name="線 109" x1="1.998" y2="1.586" transform="translate(137.455 340.096)" fill="none" stroke="#333" stroke-linecap="round" stroke-miterlimit="10" stroke-width="0.75"/>
      <line id="線_110" data-name="線 110" x1="1.982" y2="1.586" transform="translate(133.808 344.394)" fill="none" stroke="#333" stroke-linecap="round" stroke-miterlimit="10" stroke-width="0.75"/>
      <line id="線_111" data-name="線 111" x1="1.998" y2="1.586" transform="translate(142.466 339.985)" fill="none" stroke="#333" stroke-linecap="round" stroke-miterlimit="10" stroke-width="0.75"/>
      <line id="線_112" data-name="線 112" x1="1.998" y2="1.586" transform="translate(138.565 343.236)" fill="none" stroke="#333" stroke-linecap="round" stroke-miterlimit="10" stroke-width="0.75"/>
      <path id="パス_88" data-name="パス 88" d="M205.56,371.78c0-4.5-9.308-8.15-20.788-8.15S164,367.277,164,371.78a3.172,3.172,0,0,0,.127.856l5.772,41.83a10.909,10.909,0,0,0,10.8,9.419h8.182a10.925,10.925,0,0,0,10.814-9.419l5.772-41.83a3.964,3.964,0,0,0,.1-.856Z" transform="translate(-3.949 -36.425)" fill="none" stroke="#fff5d7" stroke-miterlimit="10" stroke-width="6"/>
      <path id="パス_89" data-name="パス 89" d="M205.56,371.78c0-4.5-9.308-8.15-20.788-8.15S164,367.277,164,371.78a3.172,3.172,0,0,0,.127.856l5.772,41.83a10.909,10.909,0,0,0,10.8,9.419h8.182a10.925,10.925,0,0,0,10.814-9.419l5.772-41.83a3.964,3.964,0,0,0,.1-.856Z" transform="translate(-3.949 -36.425)" fill="#feb300" stroke="#333" stroke-miterlimit="10" stroke-width="2"/>
      <ellipse id="楕円形_68" data-name="楕円形 68" cx="20.788" cy="8.15" rx="20.788" ry="8.15" transform="translate(160.051 327.205)" fill="#333"/>
      <ellipse id="楕円形_69" data-name="楕円形 69" cx="24.15" cy="3.869" rx="24.15" ry="3.869" transform="matrix(0.659, -0.752, 0.752, 0.659, 179.022, 330.207)" fill="#333" stroke="#333" stroke-miterlimit="10" stroke-width="2"/>
      <ellipse id="楕円形_70" data-name="楕円形 70" cx="3.869" cy="24.15" rx="3.869" ry="24.15" transform="matrix(0.719, -0.695, 0.695, 0.719, 144.274, 299.874)" fill="#333" stroke="#333" stroke-miterlimit="10" stroke-width="2"/>
      <line id="線_113" data-name="線 113" y1="21.042" x2="18.14" transform="translate(192.573 300.169)" fill="none" stroke="#fff5d7" stroke-linecap="round" stroke-miterlimit="10" stroke-width="0.75" opacity="0.5"/>
      <line id="線_114" data-name="線 114" x2="20.281" y2="23.293" transform="translate(149.316 299.186)" fill="none" stroke="#fff5d7" stroke-linecap="round" stroke-miterlimit="10" stroke-width="0.75" opacity="0.5"/>
      <ellipse id="楕円形_71" data-name="楕円形 71" cx="5.168" cy="32.233" rx="5.168" ry="32.233" transform="translate(156.695 275.059) rotate(-16.809)" fill="none" stroke="#fff5d7" stroke-miterlimit="10" stroke-width="4.011"/>
      <ellipse id="楕円形_72" data-name="楕円形 72" cx="5.168" cy="32.233" rx="5.168" ry="32.233" transform="translate(156.695 275.059) rotate(-16.809)" fill="#333" stroke="#333" stroke-miterlimit="10" stroke-width="2.006"/>
      <ellipse id="楕円形_73" data-name="楕円形 73" cx="32.141" cy="5.153" rx="32.141" ry="5.153" transform="translate(177.161 331.961) rotate(-73.12)" fill="none" stroke="#fff5d7" stroke-miterlimit="10" stroke-width="4"/>
      <ellipse id="楕円形_74" data-name="楕円形 74" cx="32.141" cy="5.153" rx="32.141" ry="5.153" transform="translate(177.161 331.961) rotate(-73.12)" fill="#333" stroke="#333" stroke-miterlimit="10" stroke-width="2"/>
      <path id="パス_90" data-name="パス 90" d="M192.987,331.25A185.22,185.22,0,0,0,181.11,359" transform="translate(6.071 -55.389)" fill="none" stroke="#fff5d7" stroke-linecap="round" stroke-miterlimit="10" stroke-width="0.75" opacity="0.5"/>
      <path id="パス_91" data-name="パス 91" d="M194.5,332.38S189.348,352.8,182.45,367.8" transform="translate(6.856 -54.727)" fill="none" stroke="#fff5d7" stroke-linecap="round" stroke-miterlimit="10" stroke-width="0.75" opacity="0.5"/>
      <path id="パス_92" data-name="パス 92" d="M165.8,331.25A187.113,187.113,0,0,1,177.677,359" transform="translate(-2.895 -55.389)" fill="none" stroke="#fff5d7" stroke-linecap="round" stroke-miterlimit="10" stroke-width="0.75" opacity="0.5"/>
      <path id="パス_93" data-name="パス 93" d="M164.35,332.38s5.138,20.423,12.035,35.424" transform="translate(-3.744 -54.727)" fill="none" stroke="#fff5d7" stroke-linecap="round" stroke-miterlimit="10" stroke-width="0.75" opacity="0.5"/>
      <ellipse id="楕円形_75" data-name="楕円形 75" cx="6.327" cy="39.388" rx="6.327" ry="39.388" transform="translate(174.544 254.677)" fill="none" stroke="#fff5d7" stroke-miterlimit="10" stroke-width="4"/>
      <ellipse id="楕円形_76" data-name="楕円形 76" cx="6.327" cy="39.388" rx="6.327" ry="39.388" transform="translate(174.544 254.677)" fill="#333" stroke="#333" stroke-miterlimit="10" stroke-width="2"/>
      <path id="パス_94" data-name="パス 94" d="M177.255,321s-4.662,30.128,0,75.779" transform="translate(2.6 -61.392)" fill="none" stroke="#fff5d7" stroke-linecap="round" stroke-miterlimit="10" stroke-width="0.75" opacity="0.5"/>
      <path id="パス_95" data-name="パス 95" d="M178.31,321s3.821,31.349-.84,76.984" transform="translate(3.939 -61.392)" fill="none" stroke="#fff5d7" stroke-linecap="round" stroke-miterlimit="10" stroke-width="0.75" opacity="0.5"/>
      <circle id="楕円形_77" data-name="楕円形 77" cx="5.93" cy="5.93" r="5.93" transform="translate(559.876 39.994)" fill="#333"/>
      <circle id="楕円形_78" data-name="楕円形 78" cx="5.93" cy="5.93" r="5.93" transform="translate(445.66 62.161)" fill="#333"/>
      <circle id="楕円形_79" data-name="楕円形 79" cx="5.93" cy="5.93" r="5.93" transform="translate(359.02 22.139)" fill="#333"/>
      <circle id="楕円形_80" data-name="楕円形 80" cx="5.93" cy="5.93" r="5.93" transform="translate(303.68 75.798)" fill="#333"/>
      <circle id="楕円形_81" data-name="楕円形 81" cx="5.93" cy="5.93" r="5.93" transform="translate(587.53 68.646)" fill="#333"/>
      <circle id="楕円形_82" data-name="楕円形 82" cx="5.93" cy="5.93" r="5.93" transform="translate(634.434 80.507)" fill="#333"/>
      <circle id="楕円形_83" data-name="楕円形 83" cx="5.93" cy="5.93" r="5.93" transform="translate(204.814 56.231)" fill="#333"/>
      <circle id="楕円形_84" data-name="楕円形 84" cx="5.93" cy="5.93" r="5.93" transform="translate(163.872 22.187)" fill="#333"/>
      <circle id="楕円形_85" data-name="楕円形 85" cx="5.93" cy="5.93" r="5.93" transform="translate(124.326 80.507)" fill="#333"/>
      <circle id="楕円形_86" data-name="楕円形 86" cx="5.93" cy="5.93" r="5.93" transform="translate(26.062 129.266)" fill="#333"/>
      <circle id="楕円形_87" data-name="楕円形 87" cx="5.93" cy="5.93" r="5.93" transform="translate(100.319 154.827)" fill="#333"/>
      <circle id="楕円形_88" data-name="楕円形 88" cx="5.93" cy="5.93" r="5.93" transform="translate(190.876 154.827)" fill="#333"/>
      <circle id="楕円形_89" data-name="楕円形 89" cx="5.93" cy="5.93" r="5.93" transform="translate(130.652 126.761)" fill="#333"/>
      <circle id="楕円形_90" data-name="楕円形 90" cx="5.93" cy="5.93" r="5.93" transform="translate(625.3 129.266)" fill="#333"/>
      <circle id="楕円形_91" data-name="楕円形 91" cx="5.93" cy="5.93" r="5.93" transform="translate(569.136 142.538)" fill="#333"/>
      <circle id="楕円形_92" data-name="楕円形 92" cx="5.93" cy="5.93" r="5.93" transform="translate(470.539 120.831)" fill="#333"/>
      <circle id="楕円形_93" data-name="楕円形 93" cx="5.93" cy="5.93" r="5.93" transform="translate(430.153 81.728)" fill="#333"/>
      <circle id="楕円形_94" data-name="楕円形 94" cx="9.355" cy="9.355" r="9.355" transform="translate(521.725 410.532)" fill="#feb300"/>
      <circle id="楕円形_95" data-name="楕円形 95" cx="4.678" cy="4.678" r="4.678" transform="translate(484.684 401.192)" fill="#feb300"/>
      <ellipse id="楕円形_96" data-name="楕円形 96" cx="47.015" cy="15.587" rx="47.015" ry="15.587" transform="translate(430.153 434.856)" fill="#feb300"/>
      <line id="線_115" data-name="線 115" y2="20.154" transform="translate(227.505 188.808)" fill="none" stroke="#fff5d7" stroke-linecap="round" stroke-miterlimit="10" stroke-width="2"/>
      <line id="線_116" data-name="線 116" y2="63.855" transform="translate(227.505 116.676)" fill="none" stroke="#fff5d7" stroke-linecap="round" stroke-miterlimit="10" stroke-width="2"/>
      <line id="線_117" data-name="線 117" y2="150.099" transform="translate(227.505 230.67)" fill="none" stroke="#fff5d7" stroke-linecap="round" stroke-miterlimit="10" stroke-width="2"/>
      <line id="線_118" data-name="線 118" x2="42.274" transform="translate(243.869 403.46)" fill="none" stroke="#fff5d7" stroke-linecap="round" stroke-miterlimit="10" stroke-width="2"/>
      <rect id="長方形_88" data-name="長方形 88" width="6.66" height="183.969" transform="matrix(0.996, 0.085, -0.085, 0.996, 329.921, 258.106)" fill="#fff5d7" stroke="#333" stroke-linejoin="round" stroke-width="2"/>
      <line id="線_119" data-name="線 119" x2="44.668" transform="translate(397.345 353.638)" fill="none" stroke="#333" stroke-linecap="round" stroke-miterlimit="10" stroke-width="2"/>
      <line id="線_120" data-name="線 120" x2="27.575" transform="translate(462.69 353.638)" fill="none" stroke="#333" stroke-linecap="round" stroke-miterlimit="10" stroke-width="2"/>
      <line id="線_121" data-name="線 121" y2="51.439" transform="translate(515.842 266.997)" fill="none" stroke="#333" stroke-linecap="round" stroke-miterlimit="10" stroke-width="2"/>
      <line id="線_122" data-name="線 122" y2="14.715" transform="translate(515.842 237.678)" fill="none" stroke="#333" stroke-linecap="round" stroke-miterlimit="10" stroke-width="2"/>
      <line id="線_123" data-name="線 123" y2="150.162" transform="translate(515.842 80.507)" fill="none" stroke="#333" stroke-linecap="round" stroke-miterlimit="10" stroke-width="2"/>
      <line id="線_124" data-name="線 124" y2="37.279" transform="translate(515.842 34.047)" fill="none" stroke="#333" stroke-linecap="round" stroke-miterlimit="10" stroke-width="2"/>
      <line id="線_125" data-name="線 125" x2="0.84" y2="6.47" transform="translate(169.755 371.493)" fill="none" stroke="#f1f1f1" stroke-linecap="round" stroke-miterlimit="10" stroke-width="1"/>
      <line id="線_126" data-name="線 126" x2="2.696" y2="20.947" transform="translate(166.631 347.2)" fill="none" stroke="#f1f1f1" stroke-linecap="round" stroke-miterlimit="10" stroke-width="1"/>
      <path id="パス_96" data-name="パス 96" d="M137.11,388.62s.143,12.241,10.878,12.241" transform="translate(-19.698 -21.789)" fill="none" stroke="#f1f1f1" stroke-linecap="round" stroke-miterlimit="10" stroke-width="1"/>
      <path id="パス_97" data-name="パス 97" d="M433.14,351.1s2.157,22.929-15,24.974" transform="translate(144.891 -43.763)" fill="none" stroke="#f1f1f1" stroke-linecap="round" stroke-miterlimit="10" stroke-width="1"/>
    </g>
  </g>
</svg>
