<svg xmlns="http://www.w3.org/2000/svg" width="790" height="696.91" viewBox="0 0 790 696.91">
  <g id="グループ_20" data-name="グループ 20" transform="translate(-990 -197)">
    <path id="パス_53" data-name="パス 53" d="M6388.125,362.895c60.832-113.98,180.871-189.5,310.4-190.492s176.41,41.468,199.133,107-44.922,150.984-46.307,220.125c-1.9,95.077,54.164,159.65,36.3,212.324-31.348,92.41-76.672,84.543-193.488,59.7s-204.777,20.91-330.891,0S6327.293,476.875,6388.125,362.895Z" transform="translate(-5244 96)" fill="#fff5d7"/>
    <circle id="楕円形_42" data-name="楕円形 42" cx="7" cy="7" r="7" transform="translate(1100 388)" fill="#fff5d7"/>
    <circle id="楕円形_98" data-name="楕円形 98" cx="7" cy="7" r="7" transform="translate(1681 675)" fill="#fff5d7"/>
    <circle id="楕円形_99" data-name="楕円形 99" cx="7" cy="7" r="7" transform="translate(1722 765)" fill="#fff5d7"/>
    <circle id="楕円形_46" data-name="楕円形 46" cx="8.5" cy="8.5" r="8.5" transform="translate(1343 245)" fill="#fff5d7"/>
    <circle id="楕円形_47" data-name="楕円形 47" cx="6.5" cy="6.5" r="6.5" transform="translate(1212 197)" fill="#fff5d7"/>
    <circle id="楕円形_48" data-name="楕円形 48" cx="6.5" cy="6.5" r="6.5" transform="translate(1767 346)" fill="#fff5d7"/>
    <circle id="楕円形_45" data-name="楕円形 45" cx="13" cy="13" r="13" transform="translate(1731 707)" fill="#fff5d7"/>
    <circle id="楕円形_49" data-name="楕円形 49" cx="16.5" cy="16.5" r="16.5" transform="translate(1655 352)" fill="#fff5d7"/>
    <circle id="楕円形_44" data-name="楕円形 44" cx="13" cy="13" r="13" transform="translate(1255 236)" fill="#fff5d7"/>
    <circle id="楕円形_50" data-name="楕円形 50" cx="9.5" cy="9.5" r="9.5" transform="translate(1125 693)" fill="#feb300"/>
    <circle id="楕円形_51" data-name="楕円形 51" cx="13" cy="13" r="13" transform="translate(1107 643)" fill="#feb300"/>
    <circle id="楕円形_52" data-name="楕円形 52" cx="13" cy="13" r="13" transform="translate(1573 388)" fill="#feb300"/>
    <circle id="楕円形_58" data-name="楕円形 58" cx="11" cy="11" r="11" transform="translate(1410 317)" fill="#feb300"/>
    <circle id="楕円形_56" data-name="楕円形 56" cx="16" cy="16" r="16" transform="translate(1432 379)" fill="#feb300"/>
    <circle id="楕円形_55" data-name="楕円形 55" cx="6.5" cy="6.5" r="6.5" transform="translate(1518 366)" fill="#feb300"/>
    <circle id="楕円形_59" data-name="楕円形 59" cx="6.5" cy="6.5" r="6.5" transform="translate(1612 326)" fill="#feb300"/>
    <circle id="楕円形_57" data-name="楕円形 57" cx="6.5" cy="6.5" r="6.5" transform="translate(1281 364)" fill="#feb300"/>
    <circle id="楕円形_54" data-name="楕円形 54" cx="13" cy="13" r="13" transform="translate(1505 265)" fill="#feb300"/>
    <circle id="楕円形_53" data-name="楕円形 53" cx="18" cy="18" r="18" transform="translate(1200 359)" fill="#feb300"/>
    <circle id="楕円形_43" data-name="楕円形 43" cx="13" cy="13" r="13" transform="translate(1076 326)" fill="#fff5d7"/>
    <circle id="楕円形_97" data-name="楕円形 97" cx="13" cy="13" r="13" transform="translate(990 703)" fill="#fff5d7"/>
    <g id="hero" transform="translate(1020.5 431.509)">
      <path id="パス_54" data-name="パス 54" d="M541.9,417.386c5.036-2.472,7.9-5.3,7.9-8.308,0-9.668-29.731-17.519-66.461-17.519-32.4,0-59.368,6.127-65.2,14.227a302.7,302.7,0,0,0-34.331-1.88c-45.453,0-82.3,9.221-82.3,20.592s36.844,20.592,82.3,20.592c43.459,0,79.026-8.432,82.038-19.107,5.566.395,11.423.613,17.477.613,5.441,0,10.727-.177,15.795-.5-2.347,1.942-3.666,4.1-3.666,6.376,0,8.443,17.955,15.286,40.1,15.286s40.095-6.843,40.095-15.286C575.7,424.853,561.05,418.529,541.9,417.386Z" transform="translate(58.476 -60.17)" fill="#feb300"/>
      <path id="パス_55" data-name="パス 55" d="M486.707,347.3c-16.958,0-30.7,4.413-30.7,9.865v15.369a26.148,26.148,0,0,0,26.138,26.148h9.159a26.148,26.148,0,0,0,26.138-26.148V357.165C517.4,351.713,503.664,347.3,486.707,347.3Z" transform="translate(64.417 -61.871)" fill="none" stroke="#fff5d7" stroke-miterlimit="10" stroke-width="7"/>
      <path id="パス_56" data-name="パス 56" d="M485.947,347.71c-16.948,0-30.7,4.424-30.7,9.876v15.348a26.138,26.138,0,0,0,26.138,26.138h9.118a26.138,26.138,0,0,0,26.138-26.138V357.565C516.643,352.165,502.9,347.71,485.947,347.71Z" transform="translate(64.388 -61.856)" fill="#feb300" stroke="#333" stroke-miterlimit="10" stroke-width="3"/>
      <ellipse id="楕円形_100" data-name="楕円形 100" cx="30.697" cy="10.229" rx="30.697" ry="10.229" transform="translate(520.427 284.504)" fill="#333"/>
      <path id="パス_57" data-name="パス 57" d="M480.371,328.769c2.866-7.518-30.707-35.1-31.361-16.709C448.46,327.709,478.616,333.379,480.371,328.769Z" transform="translate(64.147 -63.465)" fill="#80ba25" stroke="#333" stroke-miterlimit="10" stroke-width="3"/>
      <line id="線_5" data-name="線 5" x2="3.78" y2="2.098" transform="translate(521.839 248.481)" fill="none" stroke="#333" stroke-linecap="round" stroke-miterlimit="10" stroke-width="0.75"/>
      <line id="線_6" data-name="線 6" x2="3.78" y2="2.098" transform="translate(528.34 252.333)" fill="none" stroke="#333" stroke-linecap="round" stroke-miterlimit="10" stroke-width="0.75"/>
      <line id="線_7" data-name="線 7" x2="3.79" y2="2.098" transform="translate(535.671 258.512)" fill="none" stroke="#333" stroke-linecap="round" stroke-miterlimit="10" stroke-width="0.75"/>
      <line id="線_8" data-name="線 8" x2="3.78" y2="2.098" transform="translate(519.907 253.548)" fill="none" stroke="#333" stroke-linecap="round" stroke-miterlimit="10" stroke-width="0.75"/>
      <line id="線_9" data-name="線 9" x2="3.79" y2="2.098" transform="translate(527.353 257.889)" fill="none" stroke="#333" stroke-linecap="round" stroke-miterlimit="10" stroke-width="0.75"/>
      <path id="パス_58" data-name="パス 58" d="M482.922,359.247c-7.342-21.164-14.372-52.66-4.05-60.23s16.9-.27,17.861,9.107c.852,8.245-1.776,26.595-5.088,47.063C489.849,366.277,482.922,359.247,482.922,359.247Z" transform="translate(65.096 -63.849)" fill="#80ba25" stroke="#333" stroke-miterlimit="10" stroke-width="3"/>
      <line id="線_10" data-name="線 10" x1="0.55" y2="3.666" transform="translate(546.357 239.83)" fill="none" stroke="#333" stroke-linecap="round" stroke-miterlimit="10" stroke-width="0.75"/>
      <line id="線_11" data-name="線 11" x1="0.28" y2="5.296" transform="translate(546.492 248.294)" fill="none" stroke="#333" stroke-linecap="round" stroke-miterlimit="10" stroke-width="0.75"/>
      <line id="線_12" data-name="線 12" x1="0.218" y2="4.943" transform="translate(553.314 262.458)" fill="none" stroke="#333" stroke-linecap="round" stroke-miterlimit="10" stroke-width="0.75"/>
      <line id="線_13" data-name="線 13" y2="4.715" transform="translate(546.398 258.533)" fill="none" stroke="#333" stroke-linecap="round" stroke-miterlimit="10" stroke-width="0.75"/>
      <path id="パス_59" data-name="パス 59" d="M489.847,337.052c-2.482-6.719,19.4-27.176,21.4-10.935C512.859,339.232,491.363,341.174,489.847,337.052Z" transform="translate(65.71 -62.921)" fill="#80ba25" stroke="#333" stroke-miterlimit="10" stroke-width="3"/>
      <line id="線_14" data-name="線 14" x1="3.198" y2="1.88" transform="translate(569.421 266.518)" fill="none" stroke="#333" stroke-linecap="round" stroke-miterlimit="10" stroke-width="0.75"/>
      <line id="線_15" data-name="線 15" x1="4.787" y2="2.825" transform="translate(566.285 262.261)" fill="none" stroke="#333" stroke-linecap="round" stroke-miterlimit="10" stroke-width="0.75"/>
      <line id="線_16" data-name="線 16" x1="3.51" y2="1.194" transform="translate(559.992 270.465)" fill="none" stroke="#333" stroke-linecap="round" stroke-miterlimit="10" stroke-width="0.75"/>
      <line id="線_17" data-name="線 17" x2="0.924" y2="6.075" transform="translate(547.966 275.574)" fill="none" stroke="#333" stroke-linecap="round" stroke-miterlimit="10" stroke-width="0.75"/>
      <line id="線_18" data-name="線 18" y2="3.147" transform="translate(554.27 253.808)" fill="none" stroke="#333" stroke-linecap="round" stroke-miterlimit="10" stroke-width="0.75"/>
      <line id="線_19" data-name="線 19" y2="6.293" transform="translate(554.27 239.643)" fill="none" stroke="#333" stroke-linecap="round" stroke-miterlimit="10" stroke-width="0.75"/>
      <line id="線_20" data-name="線 20" x2="0.384" y2="3.012" transform="translate(547.582 269.146)" fill="none" stroke="#333" stroke-linecap="round" stroke-miterlimit="10" stroke-width="0.75"/>
      <path id="パス_60" data-name="パス 60" d="M347.592,450.868c-17.124,0-32.587,1.651-43.615,4.31C285.43,443.131,250.59,435,210.62,435a254.122,254.122,0,0,0-57.115,6.117c-12.461-6.231-36.439-10.447-64-10.447-40.365,0-73.086,9.035-73.086,20.2s32.722,20.187,73.086,20.187c4.85,0,9.6-.125,14.185-.374a15.245,15.245,0,0,0-.654,4.351c0,22.119,48.153,40.032,107.542,40.032,57.115,0,103.845-16.615,107.313-37.53a231.477,231.477,0,0,0,29.689,1.807c33.635,0,60.915-6.376,60.915-14.237S381.227,450.868,347.592,450.868Z" transform="translate(47.515 -58.666)" fill="#feb300"/>
      <rect id="長方形_51" data-name="長方形 51" width="255.033" height="355.783" rx="16.43" transform="translate(266.183 3.5)" fill="none" stroke="#fff5d7" stroke-miterlimit="10" stroke-width="7"/>
      <rect id="長方形_52" data-name="長方形 52" width="255.033" height="355.783" rx="16.43" transform="translate(266.183 3.5)" fill="#fff5d7" stroke="#333" stroke-miterlimit="10" stroke-width="5"/>
      <rect id="長方形_53" data-name="長方形 53" width="212.051" height="254.566" rx="1.83" transform="translate(288.458 41.518)" fill="#feb300"/>
      <path id="パス_61" data-name="パス 61" d="M442.181,115.112V364.475H235.322V115.112H442.181m.706-5.192H234.626a4.486,4.486,0,0,0-4.5,4.486V365.171a4.5,4.5,0,0,0,4.5,4.5H442.877a4.486,4.486,0,0,0,4.486-4.5V114.406a4.476,4.476,0,0,0-4.486-4.486Z" transform="translate(55.732 -70.998)" fill="#333"/>
      <circle id="楕円形_101" data-name="楕円形 101" cx="14.164" cy="14.164" r="14.164" transform="translate(380.319 315.99)" fill="#333"/>
      <circle id="楕円形_102" data-name="楕円形 102" cx="8.661" cy="8.661" r="8.661" transform="translate(385.034 13.729)" fill="#333"/>
      <path id="パス_62" data-name="パス 62" d="M2.5,141.076l30.188-11.215,74.156,26.7,30.188-28.505L197.4,156.559l119.931-43.148,49.223,26.055L433.675,83.93l41.393,40.448,96.1,21.465L626.66,130.9,735.5,146.549" transform="translate(0 3.093)" fill="none" stroke="#333" stroke-linecap="round" stroke-miterlimit="10" stroke-width="5"/>
      <path id="パス_63" data-name="パス 63" d="M39.87,97.844,129.55,86.12l38.807-59.15L208.888,62.2l98.071,19.834L361.852,26.97l86.773,40.406L562.459,43,589.5,73.825l47.114,12.3L683.19,68.238" transform="translate(1.437 0.902)" fill="none" stroke="#333" stroke-linecap="round" stroke-miterlimit="10" stroke-width="5"/>
      <rect id="長方形_54" data-name="長方形 54" width="170.015" height="306.976" rx="9.87" transform="translate(222.89 98.747)" fill="none" stroke="#fff5d7" stroke-miterlimit="10" stroke-width="6"/>
      <rect id="長方形_55" data-name="長方形 55" width="170.015" height="306.976" rx="9.87" transform="translate(222.89 98.747)" fill="#333" stroke="#333" stroke-miterlimit="10" stroke-width="2"/>
      <path id="パス_64" data-name="パス 64" d="M339.788,104.31l-4.891,12.6H262.641l-4.891-12.6H225.34V364.068H373.319V104.31Z" transform="translate(8.568 3.876)" fill="#fff5d7" stroke="#333" stroke-miterlimit="10" stroke-width="2"/>
      <rect id="長方形_56" data-name="長方形 56" width="147.979" height="48.807" transform="translate(234.697 318.348)" fill="#feb300" stroke="#333" stroke-miterlimit="10" stroke-width="4"/>
      <rect id="長方形_57" data-name="長方形 57" width="34.632" height="34.632" transform="translate(243.358 325.44)" fill="#f1f1f1"/>
      <path id="パス_65" data-name="パス 65" d="M223.832,402.44c-6.719,3.323-5.8,10.686-12.119,10.686-5.348,0-4.912-10.239-12.378-10.239-7.788,0-10.135,12.181-10.135,12.181v4.756h34.632Z" transform="translate(54.158 -59.751)" fill="#333"/>
      <line id="線_21" data-name="線 21" x2="78.714" transform="translate(290.576 333.312)" fill="none" stroke="#333" stroke-linecap="round" stroke-miterlimit="10" stroke-width="2"/>
      <line id="線_22" data-name="線 22" x2="78.714" transform="translate(290.576 342.751)" fill="none" stroke="#333" stroke-linecap="round" stroke-miterlimit="10" stroke-width="2"/>
      <line id="線_23" data-name="線 23" x2="61.404" transform="translate(290.576 353.769)" fill="none" stroke="#333" stroke-linecap="round" stroke-miterlimit="10" stroke-width="2"/>
      <rect id="長方形_58" data-name="長方形 58" width="147.979" height="48.807" transform="translate(234.697 269.551)" fill="#feb300" stroke="#333" stroke-miterlimit="10" stroke-width="4"/>
      <rect id="長方形_59" data-name="長方形 59" width="34.632" height="34.632" transform="translate(243.358 276.633)" fill="#f1f1f1"/>
      <path id="パス_66" data-name="パス 66" d="M223.832,355.44c-6.719,3.323-5.8,10.7-12.119,10.7-5.348,0-4.912-10.249-12.378-10.249-7.788,0-10.135,12.191-10.135,12.191v4.746h34.632Z" transform="translate(54.158 -61.558)" fill="#333"/>
      <line id="線_24" data-name="線 24" x2="78.714" transform="translate(290.576 284.504)" fill="none" stroke="#333" stroke-linecap="round" stroke-miterlimit="10" stroke-width="2"/>
      <line id="線_25" data-name="線 25" x2="78.714" transform="translate(290.576 293.954)" fill="none" stroke="#333" stroke-linecap="round" stroke-miterlimit="10" stroke-width="2"/>
      <line id="線_26" data-name="線 26" x2="61.404" transform="translate(290.576 304.972)" fill="none" stroke="#333" stroke-linecap="round" stroke-miterlimit="10" stroke-width="2"/>
      <rect id="長方形_60" data-name="長方形 60" width="147.979" height="48.807" transform="translate(234.697 222.322)" fill="#feb300" stroke="#333" stroke-miterlimit="10" stroke-width="4"/>
      <rect id="長方形_61" data-name="長方形 61" width="34.632" height="34.632" transform="translate(243.358 229.404)" fill="#f1f1f1"/>
      <path id="パス_67" data-name="パス 67" d="M223.832,308.45c-6.719,3.323-5.8,10.686-12.119,10.686-5.348,0-4.912-10.239-12.378-10.239-7.788,0-10.135,12.181-10.135,12.181v4.756h34.632Z" transform="translate(54.158 -63.365)" fill="#333"/>
      <line id="線_27" data-name="線 27" x2="77.146" transform="translate(290.576 235.708)" fill="none" stroke="#333" stroke-linecap="round" stroke-miterlimit="10" stroke-width="2"/>
      <line id="線_28" data-name="線 28" x2="75.568" transform="translate(290.576 246.726)" fill="none" stroke="#333" stroke-linecap="round" stroke-miterlimit="10" stroke-width="2"/>
      <line id="線_29" data-name="線 29" x2="61.404" transform="translate(290.576 256.165)" fill="none" stroke="#333" stroke-linecap="round" stroke-miterlimit="10" stroke-width="2"/>
      <rect id="長方形_62" data-name="長方形 62" width="147.979" height="48.807" transform="translate(234.697 173.515)" fill="#feb300" stroke="#333" stroke-miterlimit="10" stroke-width="4"/>
      <rect id="長方形_63" data-name="長方形 63" width="34.632" height="34.632" transform="translate(243.358 180.608)" fill="#f1f1f1"/>
      <path id="パス_68" data-name="パス 68" d="M223.832,261.45c-6.719,3.323-5.8,10.7-12.119,10.7-5.348,0-4.912-10.25-12.378-10.25-7.788,0-10.135,12.191-10.135,12.191v4.746h34.632Z" transform="translate(54.158 -65.172)" fill="#333"/>
      <line id="線_30" data-name="線 30" x2="78.714" transform="translate(290.576 186.901)" fill="none" stroke="#333" stroke-linecap="round" stroke-miterlimit="10" stroke-width="2"/>
      <line id="線_31" data-name="線 31" x2="78.714" transform="translate(290.576 197.919)" fill="none" stroke="#333" stroke-linecap="round" stroke-miterlimit="10" stroke-width="2"/>
      <line id="線_32" data-name="線 32" x2="61.404" transform="translate(290.576 207.368)" fill="none" stroke="#333" stroke-linecap="round" stroke-miterlimit="10" stroke-width="2"/>
      <path id="パス_69" data-name="パス 69" d="M311.1,368.418l.706-9.408h56.367l.717,9.408Z" transform="translate(11.866 13.669)" fill="#fff5d7"/>
      <path id="パス_70" data-name="パス 70" d="M321.562,432.935l.478,6.293H267.6l.478-6.293h53.48m2.887-3.115H265.185l-.218,2.876-.478,6.3-.249,3.344h61.154L325.145,439l-.478-6.3-.218-2.876Z" transform="translate(57.043 -58.698)" fill="#333"/>
      <path id="パス_71" data-name="パス 71" d="M318.92,273.457,319.46,263h40.468l.54,10.457Z" transform="translate(12.166 9.978)" fill="#fff5d7"/>
      <path id="パス_72" data-name="パス 72" d="M312.8,337.464l.322,6.3H275.952l.322-6.3H312.8m3.946-4.154H272.328l-.2,3.946-.332,6.293-.218,4.372H317.5l-.228-4.372-.322-6.293-.208-3.946Z" transform="translate(57.326 -62.409)" fill="#333"/>
      <path id="パス_73" data-name="パス 73" d="M317.69,291.647l.582-10.447h42.94l.571,10.447Z" transform="translate(12.119 10.677)" fill="#fff5d7"/>
      <path id="パス_74" data-name="パス 74" d="M314.09,355.654l.343,6.3h-39.7l.343-6.3H314.09m3.925-4.154H271.15l-.218,3.925-.343,6.3-.249,4.382h48.454l-.239-4.382-.353-6.3-.218-3.925Z" transform="translate(57.278 -61.71)" fill="#333"/>
      <path id="パス_75" data-name="パス 75" d="M315.71,311.357l.633-10.457h46.948l.633,10.457Z" transform="translate(12.043 11.435)" fill="#fff5d7"/>
      <path id="パス_76" data-name="パス 76" d="M316.181,375.364l.384,6.3h-43.8l.384-6.3h43.033m3.9-4.154H269.2l-.177,3.936-.415,6.231-.27,4.413h52.608l-.27-4.413-.353-6.231-.239-3.9Z" transform="translate(57.201 -60.952)" fill="#333"/>
      <path id="パス_77" data-name="パス 77" d="M314.38,329.008,315,319.6h49.731l.623,9.408Z" transform="translate(11.992 12.154)" fill="#fff5d7"/>
      <path id="パス_78" data-name="パス 78" d="M318.092,393.515l.426,6.3H270.873l.415-6.3h46.8m2.918-3.115H268.371l-.2,2.908-.415,6.3-.218,3.323h54.3l-.218-3.323-.415-6.3-.2-2.908Z" transform="translate(57.17 -60.214)" fill="#333"/>
      <path id="パス_79" data-name="パス 79" d="M313.1,348.719l.665-9.419h52.307l.665,9.419Z" transform="translate(11.942 12.911)" fill="#fff5d7"/>
      <path id="パス_80" data-name="パス 80" d="M319.45,413.225l.436,6.3H269.594l.447-6.3H319.45m2.9-3.115H267.133l-.208,2.9-.436,6.3-.239,3.333h56.98l-.239-3.333-.436-6.3-.208-2.9Z" transform="translate(57.121 -59.456)" fill="#333"/>
      <rect id="長方形_64" data-name="長方形 64" width="31.486" height="7.871" rx="2.32" transform="translate(301.605 108.186)" fill="#fff5d7"/>
      <circle id="楕円形_103" data-name="楕円形 103" cx="11.018" cy="11.018" r="11.018" transform="translate(298.458 375.815)" fill="#fff5d7"/>
      <circle id="楕円形_104" data-name="楕円形 104" cx="8.661" cy="8.661" r="8.661" transform="translate(301.594 378.962)" fill="#333"/>
      <rect id="長方形_65" data-name="長方形 65" width="7.269" height="182.643" transform="matrix(-0.996, 0.085, -0.085, -0.996, 390.718, 438.231)" fill="#fff5d7" stroke="#333" stroke-linejoin="round" stroke-width="4"/>
      <rect id="長方形_66" data-name="長方形 66" width="147.668" height="48.516" transform="translate(288.412 105.875) rotate(17.09)" fill="none" stroke="#fff5d7" stroke-miterlimit="10" stroke-width="6"/>
      <rect id="長方形_67" data-name="長方形 67" width="147.668" height="48.516" transform="translate(288.412 105.875) rotate(17.09)" fill="#feb300" stroke="#333" stroke-miterlimit="10" stroke-width="4"/>
      <rect id="長方形_68" data-name="長方形 68" width="34.012" height="34.012" transform="translate(296.212 115.241) rotate(16.809)" fill="#f1f1f1"/>
      <path id="パス_81" data-name="パス 81" d="M266.39,208.606c-7.269,1.246-8.578,8.557-14.486,6.74-5.016-1.547-1.589-11.215-8.578-13.365-7.269-2.243-13.074,8.733-13.074,8.733l-1.392,4.538,32.42,9.969Z" transform="translate(55.683 -67.47)" fill="#333"/>
      <line id="線_33" data-name="線 33" x2="75.475" y2="23.199" transform="translate(337.244 135.798)" fill="none" stroke="#333" stroke-linecap="round" stroke-miterlimit="10" stroke-width="2"/>
      <line id="線_34" data-name="線 34" x2="75.475" y2="23.199" transform="translate(334.305 145.363)" fill="none" stroke="#333" stroke-linecap="round" stroke-miterlimit="10" stroke-width="2"/>
      <line id="線_35" data-name="線 35" x2="59.088" y2="18.162" transform="translate(331.367 154.927)" fill="none" stroke="#333" stroke-linecap="round" stroke-miterlimit="10" stroke-width="2"/>
      <path id="パス_82" data-name="パス 82" d="M304.71,240.094s-35.733,38.423-30.437,97.936c0,0-6.615-2.648-9.263,5.3h22.5s-2.648-23.822,9.263-38.423c0,0-1.329,21.174,6.615,33.085,0,0-6.615-2.648-9.263,5.3h22.5c-6.625-25.151-7.944-58.236,1.319-107.2,2.949-15.577-15.878-22.5-21.174,1.319Z" transform="translate(57.073 -66.693)" fill="none" stroke="#fff5d7" stroke-linejoin="round" stroke-width="6"/>
      <path id="パス_83" data-name="パス 83" d="M333.49,253.223l2.025-4.673c5.192,4.652-2.9,19.191-22,22.846l.145-12.088Z" transform="translate(58.938 -65.668)" fill="none" stroke="#fff5d7" stroke-linejoin="round" stroke-width="2"/>
      <circle id="楕円形_105" data-name="楕円形 105" cx="5.514" cy="5.514" r="5.514" transform="translate(353.548 147.543)" fill="#f1f1f1"/>
      <path id="パス_84" data-name="パス 84" d="M304.71,239.334s-35.733,38.423-30.437,97.936c0,0-6.615-2.648-9.263,5.3h22.5s-2.648-23.822,9.263-38.423c0,0-1.329,21.174,6.615,33.085,0,0-6.615-2.648-9.263,5.3h22.5c-6.625-25.141-7.944-58.236,1.319-107.2,2.949-15.577-15.878-22.5-21.174,1.319Z" transform="translate(57.073 -66.722)" fill="#fff5d7" stroke="#333" stroke-linejoin="round" stroke-width="4"/>
      <path id="パス_85" data-name="パス 85" d="M295.8,267.343c-40.572-19.834-39.253-34.736-33.957-38.7l1.308,6.6,38.34,21.807" transform="translate(56.848 -66.434)" fill="none" stroke="#fff5d7" stroke-linecap="round" stroke-linejoin="round" stroke-width="2"/>
      <path id="パス_86" data-name="パス 86" d="M297.981,265.4c-40.572-19.834-40.728-33.947-35.432-37.924l3.635,6.916,36.034,21.517" transform="translate(56.886 -66.478)" fill="#fff5d7" stroke="#333" stroke-linecap="round" stroke-linejoin="round" stroke-width="3"/>
      <path id="パス_87" data-name="パス 87" d="M330.287,252.174l4.154-4.7c5.192,4.642-3.884,17.841-22.991,21.5l1.122-10.748Z" transform="translate(58.858 -65.71)" fill="#fff5d7" stroke="#333" stroke-linejoin="round" stroke-width="3"/>
      <path id="パス_88" data-name="パス 88" d="M300.66,225.3l16.169,5.826C316.039,222.02,307.1,217.867,300.66,225.3Z" transform="translate(58.444 -66.709)" fill="#333"/>
      <path id="パス_89" data-name="パス 89" d="M311.366,292.325l-33.158-3.115a133.9,133.9,0,0,0-3.936,46.221s-6.615-2.648-9.263,5.3h22.5s-2.648-23.822,9.263-38.423c0,0-1.329,21.174,6.615,33.085,0,0-6.615-2.648-9.263,5.3h22.5C313.09,327.28,311.065,311.547,311.366,292.325Z" transform="translate(57.073 -64.105)" fill="#333" stroke="#333" stroke-linejoin="round" stroke-width="2"/>
      <circle id="楕円形_106" data-name="楕円形 106" cx="3.936" cy="3.936" r="3.936" transform="translate(355.126 149.122)" fill="#333"/>
      <path id="パス_90" data-name="パス 90" d="M75.694,398.117c2.077-3.614-8.308-17.654-11.174-8.484C62.236,397.006,74.375,400.319,75.694,398.117Z" transform="translate(49.353 -60.361)" fill="#80ba25" stroke="#333" stroke-miterlimit="10" stroke-width="2"/>
      <path id="パス_91" data-name="パス 91" d="M79.96,410c-10,0-18.1,2.575-18.1,5.763v8.972A15.255,15.255,0,0,0,77.115,439.99h5.66a15.255,15.255,0,0,0,15.255-15.255v-8.972C98.06,412.575,89.96,410,79.96,410Z" transform="translate(49.262 -59.461)" fill="none" stroke="#fff5d7" stroke-miterlimit="10" stroke-width="6"/>
      <path id="パス_92" data-name="パス 92" d="M80.721,409.24c-10,0-18.111,2.575-18.111,5.763v8.972A15.255,15.255,0,0,0,77.875,439.23h5.691a15.255,15.255,0,0,0,15.255-15.255V415C98.821,411.815,90.721,409.24,80.721,409.24Z" transform="translate(49.291 -59.49)" fill="#feb300" stroke="#333" stroke-miterlimit="10" stroke-width="3"/>
      <ellipse id="楕円形_107" data-name="楕円形 107" cx="18.1" cy="5.514" rx="18.1" ry="5.514" transform="translate(111.122 350.623)" fill="#333"/>
      <path id="パス_93" data-name="パス 93" d="M78.33,416.888c-4.289-12.358-8.391-30.738-2.368-35.131s9.865-.156,10.384,5.317c.5,4.808-1.038,15.525-2.97,27.477C82.349,421,78.33,416.888,78.33,416.888Z" transform="translate(49.687 -60.617)" fill="#80ba25" stroke="#333" stroke-miterlimit="10" stroke-width="2"/>
      <path id="パス_94" data-name="パス 94" d="M81.389,406.864c-2.378-4.05,14.3-23.168,16.449-12.638C99.686,403.177,82.853,409.356,81.389,406.864Z" transform="translate(50.004 -60.187)" fill="#80ba25" stroke="#333" stroke-miterlimit="10" stroke-width="2"/>
      <line id="線_36" data-name="線 36" x1="0.322" y2="2.139" transform="translate(126.802 324.09)" fill="none" stroke="#333" stroke-linecap="round" stroke-miterlimit="10" stroke-width="0.75"/>
      <line id="線_37" data-name="線 37" x1="0.166" y2="3.095" transform="translate(127.124 328.774)" fill="none" stroke="#333" stroke-linecap="round" stroke-miterlimit="10" stroke-width="0.75"/>
      <line id="線_38" data-name="線 38" x1="0.125" y2="2.887" transform="translate(131.112 337.05)" fill="none" stroke="#333" stroke-linecap="round" stroke-miterlimit="10" stroke-width="0.75"/>
      <line id="線_39" data-name="線 39" y2="3.157" transform="translate(127.644 334.09)" fill="none" stroke="#333" stroke-linecap="round" stroke-miterlimit="10" stroke-width="0.75"/>
      <line id="線_40" data-name="線 40" x2="1.651" y2="1.402" transform="translate(116.013 331.629)" fill="none" stroke="#333" stroke-linecap="round" stroke-miterlimit="10" stroke-width="0.75"/>
      <line id="線_41" data-name="線 41" x2="2.461" y2="2.118" transform="translate(117.342 329.334)" fill="none" stroke="#333" stroke-linecap="round" stroke-miterlimit="10" stroke-width="0.75"/>
      <line id="線_42" data-name="線 42" x2="1.89" y2="1.049" transform="translate(120.852 334.828)" fill="none" stroke="#333" stroke-linecap="round" stroke-miterlimit="10" stroke-width="0.75"/>
      <line id="線_43" data-name="線 43" x2="0.54" y2="3.541" transform="translate(127.986 344.703)" fill="none" stroke="#333" stroke-linecap="round" stroke-miterlimit="10" stroke-width="0.75"/>
      <line id="線_44" data-name="線 44" y2="1.568" transform="translate(130.79 332.522)" fill="none" stroke="#333" stroke-linecap="round" stroke-miterlimit="10" stroke-width="0.75"/>
      <line id="線_45" data-name="線 45" y2="3.147" transform="translate(130.79 323.072)" fill="none" stroke="#333" stroke-linecap="round" stroke-miterlimit="10" stroke-width="0.75"/>
      <line id="線_46" data-name="線 46" x1="1.973" y2="1.578" transform="translate(140.853 334.807)" fill="none" stroke="#333" stroke-linecap="round" stroke-miterlimit="10" stroke-width="0.75"/>
      <line id="線_47" data-name="線 47" x2="0.228" y2="1.765" transform="translate(127.758 340.944)" fill="none" stroke="#333" stroke-linecap="round" stroke-miterlimit="10" stroke-width="0.75"/>
      <line id="線_48" data-name="線 48" x1="1.983" y2="1.578" transform="translate(137.478 337.652)" fill="none" stroke="#333" stroke-linecap="round" stroke-miterlimit="10" stroke-width="0.75"/>
      <line id="線_49" data-name="線 49" x1="1.973" y2="1.578" transform="translate(133.853 341.92)" fill="none" stroke="#333" stroke-linecap="round" stroke-miterlimit="10" stroke-width="0.75"/>
      <line id="線_50" data-name="線 50" x1="1.983" y2="1.578" transform="translate(142.452 337.538)" fill="none" stroke="#333" stroke-linecap="round" stroke-miterlimit="10" stroke-width="0.75"/>
      <line id="線_51" data-name="線 51" x1="1.983" y2="1.578" transform="translate(138.578 340.757)" fill="none" stroke="#333" stroke-linecap="round" stroke-miterlimit="10" stroke-width="0.75"/>
      <path id="パス_95" data-name="パス 95" d="M150.118,393.909c0-4.465-9.242-8.09-20.644-8.09s-20.634,3.624-20.634,8.09a3.449,3.449,0,0,0,.114.862l5.732,41.538a10.821,10.821,0,0,0,10.727,9.346h8.121a10.821,10.821,0,0,0,10.727-9.346l5.732-41.538a3.458,3.458,0,0,0,.125-.862Z" transform="translate(51.068 -60.39)" fill="none" stroke="#fff5d7" stroke-miterlimit="10" stroke-width="6"/>
      <path id="パス_96" data-name="パス 96" d="M150.118,393.15c0-4.465-9.242-8.09-20.644-8.09s-20.634,3.624-20.634,8.09a3.449,3.449,0,0,0,.114.862l5.732,41.538a10.821,10.821,0,0,0,10.727,9.346h8.121a10.821,10.821,0,0,0,10.727-9.346l5.732-41.538a3.459,3.459,0,0,0,.125-.862Z" transform="translate(51.068 -60.419)" fill="#feb300" stroke="#333" stroke-miterlimit="10" stroke-width="3"/>
      <ellipse id="楕円形_108" data-name="楕円形 108" cx="20.468" cy="7.871" rx="20.468" ry="7.871" transform="translate(159.919 325.44)" fill="#333"/>
      <ellipse id="楕円形_109" data-name="楕円形 109" cx="23.687" cy="3.79" rx="23.687" ry="3.79" transform="translate(179.342 327.537) rotate(-49.2)" fill="#333" stroke="#333" stroke-miterlimit="10" stroke-width="2"/>
      <ellipse id="楕円形_110" data-name="楕円形 110" cx="3.79" cy="23.635" rx="3.79" ry="23.635" transform="translate(144.822 298.325) rotate(-43.6)" fill="#333" stroke="#333" stroke-miterlimit="10" stroke-width="2"/>
      <line id="線_52" data-name="線 52" y1="20.873" x2="18.017" transform="translate(192.194 298.015)" fill="none" stroke="#fff5d7" stroke-linecap="round" stroke-miterlimit="10" stroke-width="0.75" opacity="0.5"/>
      <line id="線_53" data-name="線 53" x2="20.136" y2="23.116" transform="translate(149.254 297.039)" fill="none" stroke="#fff5d7" stroke-linecap="round" stroke-miterlimit="10" stroke-width="0.75" opacity="0.5"/>
      <ellipse id="楕円形_111" data-name="楕円形 111" cx="5.016" cy="31.963" rx="5.016" ry="31.963" transform="matrix(0.959, -0.283, 0.283, 0.959, 156.312, 271.794)" fill="none" stroke="#fff5d7" stroke-miterlimit="10" stroke-width="4"/>
      <ellipse id="楕円形_112" data-name="楕円形 112" cx="5.016" cy="31.963" rx="5.016" ry="31.963" transform="matrix(0.959, -0.283, 0.283, 0.959, 156.312, 271.794)" fill="#333" stroke="#333" stroke-miterlimit="10" stroke-width="2"/>
      <ellipse id="楕円形_113" data-name="楕円形 113" cx="31.963" cy="5.016" rx="31.963" ry="5.016" transform="matrix(0.283, -0.959, 0.959, 0.283, 176.775, 330.282)" fill="none" stroke="#fff5d7" stroke-miterlimit="10" stroke-width="4"/>
      <ellipse id="楕円形_114" data-name="楕円形 114" cx="31.963" cy="5.016" rx="31.963" ry="5.016" transform="matrix(0.283, -0.959, 0.959, 0.283, 176.775, 330.282)" fill="#333" stroke="#333" stroke-miterlimit="10" stroke-width="2"/>
      <path id="パス_97" data-name="パス 97" d="M146.576,336.18a185.487,185.487,0,0,0-11.786,27.54" transform="translate(52.066 -62.299)" fill="none" stroke="#fff5d7" stroke-linecap="round" stroke-miterlimit="10" stroke-width="0.75" opacity="0.5"/>
      <path id="パス_98" data-name="パス 98" d="M148.783,337.89s-5.109,20.271-11.953,35.172" transform="translate(52.144 -62.233)" fill="none" stroke="#fff5d7" stroke-linecap="round" stroke-miterlimit="10" stroke-width="0.75" opacity="0.5"/>
      <path id="パス_99" data-name="パス 99" d="M111.58,336.18a185.486,185.486,0,0,1,11.786,27.54" transform="translate(51.174 -62.299)" fill="none" stroke="#fff5d7" stroke-linecap="round" stroke-miterlimit="10" stroke-width="0.75" opacity="0.5"/>
      <path id="パス_100" data-name="パス 100" d="M109.38,337.89s5.109,20.271,11.953,35.172" transform="translate(51.089 -62.233)" fill="none" stroke="#fff5d7" stroke-linecap="round" stroke-miterlimit="10" stroke-width="0.75" opacity="0.5"/>
      <ellipse id="楕円形_115" data-name="楕円形 115" cx="6.293" cy="39.357" rx="6.293" ry="39.357" transform="translate(174.093 253.019)" fill="none" stroke="#fff5d7" stroke-miterlimit="10" stroke-width="4"/>
      <ellipse id="楕円形_116" data-name="楕円形 116" cx="6.293" cy="39.357" rx="6.293" ry="39.357" transform="translate(174.093 253.019)" fill="#333" stroke="#333" stroke-miterlimit="10" stroke-width="2"/>
      <path id="パス_101" data-name="パス 101" d="M127.856,320.61s-4.621,29.918,0,75.225" transform="translate(51.72 -62.898)" fill="none" stroke="#fff5d7" stroke-linecap="round" stroke-miterlimit="10" stroke-width="0.75" opacity="0.5"/>
      <path id="パス_102" data-name="パス 102" d="M130.16,320.61s3.8,31.153-.82,76.419" transform="translate(51.856 -62.898)" fill="none" stroke="#fff5d7" stroke-linecap="round" stroke-miterlimit="10" stroke-width="0.75" opacity="0.5"/>
      <circle id="楕円形_117" data-name="楕円形 117" cx="8.661" cy="8.661" r="8.661" transform="translate(553.481 37.343)" fill="#333"/>
      <circle id="楕円形_118" data-name="楕円形 118" cx="8.661" cy="8.661" r="8.661" transform="translate(440.134 59.379)" fill="#333"/>
      <circle id="楕円形_119" data-name="楕円形 119" cx="8.661" cy="8.661" r="8.661" transform="translate(355.126 18.454)" fill="#333"/>
      <circle id="楕円形_120" data-name="楕円形 120" cx="8.661" cy="8.661" r="8.661" transform="translate(300.026 71.975)" fill="#333"/>
      <circle id="楕円形_121" data-name="楕円形 121" cx="8.661" cy="8.661" r="8.661" transform="translate(581.82 65.682)" fill="#333"/>
      <circle id="楕円形_122" data-name="楕円形 122" cx="8.661" cy="8.661" r="8.661" transform="translate(627.47 76.7)" fill="#333"/>
      <circle id="楕円形_123" data-name="楕円形 123" cx="8.661" cy="8.661" r="8.661" transform="translate(200.844 53.086)" fill="#333"/>
      <circle id="楕円形_124" data-name="楕円形 124" cx="8.661" cy="8.661" r="8.661" transform="translate(161.487 20.032)" fill="#333"/>
      <circle id="楕円形_125" data-name="楕円形 125" cx="8.661" cy="8.661" r="8.661" transform="translate(122.129 76.7)" fill="#333"/>
      <circle id="楕円形_126" data-name="楕円形 126" cx="8.661" cy="8.661" r="8.661" transform="translate(24.526 125.507)" fill="#333"/>
      <circle id="楕円形_127" data-name="楕円形 127" cx="8.661" cy="8.661" r="8.661" transform="translate(98.515 150.69)" fill="#333"/>
      <circle id="楕円形_128" data-name="楕円形 128" cx="8.661" cy="8.661" r="8.661" transform="translate(188.247 150.69)" fill="#333"/>
      <circle id="楕円形_129" data-name="楕円形 129" cx="8.661" cy="8.661" r="8.661" transform="translate(128.433 122.351)" fill="#333"/>
      <circle id="楕円形_130" data-name="楕円形 130" cx="8.661" cy="8.661" r="8.661" transform="translate(619.599 125.507)" fill="#333"/>
      <circle id="楕円形_131" data-name="楕円形 131" cx="8.661" cy="8.661" r="8.661" transform="translate(562.92 138.093)" fill="#333"/>
      <circle id="楕円形_132" data-name="楕円形 132" cx="8.661" cy="8.661" r="8.661" transform="translate(465.316 117.636)" fill="#333"/>
      <circle id="楕円形_133" data-name="楕円形 133" cx="8.661" cy="8.661" r="8.661" transform="translate(425.969 78.279)" fill="#333"/>
      <circle id="楕円形_134" data-name="楕円形 134" cx="9.45" cy="9.45" r="9.45" transform="translate(518.848 407.291)" fill="#feb300"/>
      <circle id="楕円形_135" data-name="楕円形 135" cx="4.725" cy="4.725" r="4.725" transform="translate(482.638 397.851)" fill="#feb300"/>
      <ellipse id="楕円形_136" data-name="楕円形 136" cx="46.439" cy="15.743" rx="46.439" ry="15.743" transform="translate(427.537 430.915)" fill="#feb300"/>
      <line id="線_54" data-name="線 54" y2="20.468" transform="translate(227.615 186.901)" fill="none" stroke="#fff5d7" stroke-linecap="round" stroke-miterlimit="10" stroke-width="2"/>
      <line id="線_55" data-name="線 55" y2="62.972" transform="translate(227.615 116.058)" fill="none" stroke="#fff5d7" stroke-linecap="round" stroke-miterlimit="10" stroke-width="2"/>
      <line id="線_56" data-name="線 56" y2="147.979" transform="translate(227.615 229.404)" fill="none" stroke="#fff5d7" stroke-linecap="round" stroke-miterlimit="10" stroke-width="2"/>
      <line id="線_57" data-name="線 57" x2="42.504" transform="translate(243.358 400.998)" fill="none" stroke="#fff5d7" stroke-linecap="round" stroke-miterlimit="10" stroke-width="2"/>
      <rect id="長方形_69" data-name="長方形 69" width="7.269" height="182.643" transform="matrix(0.996, 0.085, -0.085, 0.996, 328.541, 256.247)" fill="#fff5d7" stroke="#333" stroke-linejoin="round" stroke-width="4"/>
      <line id="線_58" data-name="線 58" x2="44.072" transform="translate(395.273 349.833)" fill="none" stroke="#333" stroke-linecap="round" stroke-miterlimit="10" stroke-width="3"/>
      <line id="線_59" data-name="線 59" x2="28.339" transform="translate(459.812 349.833)" fill="none" stroke="#333" stroke-linecap="round" stroke-miterlimit="10" stroke-width="3"/>
      <line id="線_60" data-name="線 60" y2="51.954" transform="translate(511.766 264.826)" fill="none" stroke="#333" stroke-linecap="round" stroke-miterlimit="10" stroke-width="3"/>
      <line id="線_61" data-name="線 61" y2="14.175" transform="translate(511.766 236.487)" fill="none" stroke="#333" stroke-linecap="round" stroke-miterlimit="10" stroke-width="3"/>
      <line id="線_62" data-name="線 62" y2="147.979" transform="translate(511.766 80.636)" fill="none" stroke="#333" stroke-linecap="round" stroke-miterlimit="10" stroke-width="3"/>
      <line id="線_63" data-name="線 63" y2="37.789" transform="translate(511.766 33.407)" fill="none" stroke="#333" stroke-linecap="round" stroke-miterlimit="10" stroke-width="3"/>
      <line id="線_64" data-name="線 64" x2="0.82" y2="6.428" transform="translate(171.248 368.816)" fill="none" stroke="#f1f1f1" stroke-linecap="round" stroke-miterlimit="10" stroke-width="2"/>
      <line id="線_65" data-name="線 65" x2="2.305" y2="17.913" transform="translate(168.008 344.122)" fill="none" stroke="#f1f1f1" stroke-linecap="round" stroke-miterlimit="10" stroke-width="2"/>
      <path id="パス_103" data-name="パス 103" d="M68.05,423.14s-.208,9.948,9.419,10.613" transform="translate(49.5 -58.955)" fill="none" stroke="#f1f1f1" stroke-linecap="round" stroke-miterlimit="10" stroke-width="2"/>
      <path id="パス_104" data-name="パス 104" d="M508.552,366.27s2.15,22.763-14.9,24.788" transform="translate(65.864 -61.142)" fill="none" stroke="#f1f1f1" stroke-linecap="round" stroke-miterlimit="10" stroke-width="2"/>
    </g>
  </g>
</svg>
