<svg xmlns="http://www.w3.org/2000/svg" viewBox="0 0 32.71 50"><g id="レイヤー_2" data-name="レイヤー 2"><g id="レイヤー_1-2" data-name="レイヤー 1"><polygon points="22.35 50 5.56 50 24.31 39.17 24.31 21.25 11.61 28.58 11.61 18.89 32.71 6.71 32.71 44.02 22.35 50" style="fill:#0d3765"/><polygon points="21.1 26.7 8.4 34.03 8.4 17.03 21.1 9.68 21.1 7.75 6.72 16.06 6.72 36.94 21.1 28.64 21.1 26.7" style="fill:#0d3765"/><polygon points="21.1 30.58 5.04 39.85 5.04 15.09 21.1 5.82 21.1 3.88 3.36 14.12 3.36 42.76 21.1 32.52 21.1 30.58" style="fill:#0d3765"/><polygon points="21.1 34.46 1.68 45.67 1.68 13.15 21.1 1.94 21.1 0 0 12.18 0 48.58 21.1 36.4 21.1 34.46" style="fill:#0d3765"/></g></g></svg>