<svg xmlns="http://www.w3.org/2000/svg" viewBox="0 0 200.88 49.27"><g id="レイヤー_2" data-name="レイヤー 2"><g id="レイヤー_1-2" data-name="レイヤー 1"><path d="M67.86,0H52.44V15.34a18.51,18.51,0,0,1-37,0V0H0V15.34a33.93,33.93,0,0,0,67.86,0v.08h8.91V0Z" style="fill:#303c6c"/><text transform="translate(97.48 36.97)" style="font-size:35.003719329833984px;fill:#303c6c;font-family:AvenirNextCondensed-Bold, Avenir Next Condensed;font-weight:700">UNITEQ</text><path d="M24.33,0H43.53a0,0,0,0,1,0,0V16.71a8.22,8.22,0,0,1-8.22,8.22H32.56a8.22,8.22,0,0,1-8.22-8.22V0a0,0,0,0,1,0,0Z" style="fill:#303c6c"/></g></g></svg>