<svg xmlns="http://www.w3.org/2000/svg" viewBox="0 0 118.16 104.89"><g id="レイヤー_2" data-name="レイヤー 2"><g id="レイヤー_1-2" data-name="レイヤー 1"><text transform="translate(0 94.89)" style="font-size:40px;fill:#303c6c;font-family:AvenirNextCondensed-Bold, Avenir Next Condensed;font-weight:700">UNITEQ</text><path d="M88.55,0H73.13V15.34a18.51,18.51,0,0,1-37,0V0H20.69V15.34a33.93,33.93,0,0,0,67.86,0v.08h8.91V0Z" style="fill:#303c6c"/><path d="M46.4,0H62.85a1.37,1.37,0,0,1,1.37,1.37v14a9.6,9.6,0,0,1-9.6,9.6h0a9.6,9.6,0,0,1-9.6-9.6v-14A1.37,1.37,0,0,1,46.4,0Z" style="fill:#f4976c"/></g></g></svg>