<svg xmlns="http://www.w3.org/2000/svg" viewBox="0 0 200.88 49.27"><g id="レイヤー_2" data-name="レイヤー 2"><g id="レイヤー_1-2" data-name="レイヤー 1"><path d="M67.86,0H52.44V15.34a18.51,18.51,0,0,1-37,0V0H0V15.34a33.93,33.93,0,0,0,67.86,0v.08h8.91V0Z" style="fill:#303c6c"/><text transform="translate(97.48 36.97)" style="font-size:35.003719329833984px;fill:#303c6c;font-family:AvenirNextCondensed-Bold, Avenir Next Condensed;font-weight:700">UNITEQ</text><path d="M25.7,0H42.15a1.37,1.37,0,0,1,1.37,1.37v14a9.6,9.6,0,0,1-9.6,9.6h0a9.6,9.6,0,0,1-9.6-9.6v-14A1.37,1.37,0,0,1,25.7,0Z" style="fill:#f4976c"/></g></g></svg>